<?xml version="1.0" encoding="utf-8"?>
<!-- Generator: Adobe Illustrator 21.0.0, SVG Export Plug-In . SVG Version: 6.00 Build 0)  -->
<svg version="1.1" xmlns="http://www.w3.org/2000/svg" xmlns:xlink="http://www.w3.org/1999/xlink" x="0px" y="0px"
	 viewBox="0 0 300 300" style="enable-background:new 0 0 300 300;" xml:space="preserve">
<style type="text/css">
	.st0{display:none;}
	.st1{display:inline;opacity:0.3;fill:#606060;}
	.st2{display:inline;opacity:0.1;}
	.st3{opacity:0.15;}
	.st4{opacity:0.2;}
	.st5{fill:#7A7A7A;}
	.st6{fill:#FFFFFF;}
	.st7{fill:#FFFFFF;stroke:#FFFFFF;stroke-width:4;stroke-linejoin:round;stroke-miterlimit:10;}
	.st8{fill:#FED242;}
	.st9{fill:#FE6A2B;}
	.st10{fill:#FAF9CE;}
	.st11{fill:#EE360C;}
	.st12{fill:#FE9E45;}
</style>
<g id="Calque_1" class="st0">
	<path class="st1" d="M150,39.6c-49.9,0-90.4,40.5-90.4,90.4c0,49.9,40.5,90.4,90.4,90.4s90.4-40.5,90.4-90.4
		C240.4,80.1,199.9,39.6,150,39.6z M211,98c4.4,0,8,3.6,8,8s-3.6,8-8,8s-8-3.6-8-8S206.6,98,211,98z M184,63.5c2.2,0,4,1.8,4,4
		c0,2.2-1.8,4-4,4s-4-1.8-4-4C180,65.3,181.8,63.5,184,63.5z M167.5,73.8H180v12.5h-12.5V73.8z M173.8,119.2v28.5h-28.5v-28.5H173.8
		z M123,49h12v12h-12V49z M132,80c9.9,0,18,8.1,18,18c0,9.9-8.1,18-18,18s-18-8.1-18-18C114,88.1,122.1,80,132,80z M103.9,70.2
		l2.6-7.9l2.6,7.9h8.3l-6.7,4.9l2.6,7.9l-6.7-4.9l-6.7,4.9l2.6-7.9l-6.7-4.9H103.9z M91.5,115h21v21h-21V115z M76.5,98
		c4.4,0,8,3.6,8,8s-3.6,8-8,8s-8-3.6-8-8S72.1,98,76.5,98z M93.3,164.6l-8.8-6.4l-8.8,6.4l3.4-10.4l-8.8-6.4h10.9l3.4-10.4l3.4,10.4
		h10.9l-8.8,6.4L93.3,164.6z M122.5,201c-11.3,0-20.5-9.2-20.5-20.5s9.2-20.5,20.5-20.5s20.5,9.2,20.5,20.5S133.8,201,122.5,201z
		 M153,163.7l-5.7,4.1l2.2-6.7l-5.7-4.1h7l2.2-6.7l2.2,6.7h7l-5.7,4.1l2.2,6.7L153,163.7z M181.5,201.5h-20v-20h20V201.5z
		 M181.5,171.8c-4.3,0-7.8-3.5-7.8-7.8s3.5-7.8,7.8-7.8s7.8,3.5,7.8,7.8S185.8,171.8,181.5,171.8z M192.5,115.2L184,109l-8.5,6.2
		l3.2-10l-8.5-6.2h10.5l3.2-10l3.2,10h10.5l-8.5,6.2L192.5,115.2z M217.2,180.2l-6.2-4.5l-6.2,4.5l2.4-7.2l-6.2-4.5h7.6l2.4-7.2
		l2.4,7.2h7.6l-6.2,4.5L217.2,180.2z M207.5,144.5v-17h17v17H207.5z"/>
</g>
<g id="Calque_2" class="st0">
	<g class="st2">
		<path d="M240.5,130c0,24.9-8.8,46.1-26.4,63.8c-17.6,17.6-38.9,26.4-63.8,26.4s-46.1-8.8-63.8-26.4
			c-17.6-17.6-26.4-38.9-26.4-63.8s8.8-46.1,26.4-63.8s38.9-26.4,63.8-26.4s46.1,8.8,63.8,26.4C231.7,83.8,240.5,105.1,240.5,130z
			 M197.1,189.4l-32.5-32.5h-58.3v-16.8h41.4l-20.3-20.3c-10.3,0.4-17.1,1-20.5,1.5c-6.2,1.1-10.1,3.1-11.6,6.1
			c-0.4,0.7-0.6,1.5-0.6,2.4c0,1.8,0.6,3.7,1.9,5.7c-3.7-2.8-5.5-6.3-5.5-10.7c0-1,0.1-2.1,0.4-3.1c1.5-6.6,10.2-10.5,26.2-11.6
			L90.7,83C79.9,96.8,74.5,112.4,74.5,130c0,20.9,7.4,38.8,22.2,53.6c14.8,14.8,32.7,22.2,53.6,22.2
			C167.7,205.7,183.3,200.3,197.1,189.4z M95.5,156.9h-5.2v-16.8h5.2V156.9z M103.6,156.9h-5.5v-16.8h5.5V156.9z M226,130
			c0-20.9-7.4-38.8-22.2-53.6c-14.8-14.8-32.7-22.2-53.6-22.2c-18.7,0-35.2,6.1-49.3,18.2l36.7,36.7c17.5-1.4,26.9-6.3,28.4-14.8
			c0.1-1,0.2-1.9,0.2-2.9c0-10-8.5-15.7-25.4-17.1c2.6-0.4,5.5-0.6,8.5-0.6c18.2,0,27.3,6,27.3,18.1c0,2-0.3,4.1-0.8,6.3
			c-2.6,10.9-12.2,17.7-29,20.2l21.8,21.8h39.5v16.8h-22.7l22.2,22.2C219.9,165,226,148.6,226,130z"/>
	</g>
</g>
<g id="Calque_3">
	<g class="st3">
		<g class="st4">
			<path d="M150.2,39.8c-46.6,0-84.4,37.8-84.4,84.4s37.8,84.4,84.4,84.4s84.4-37.8,84.4-84.4S196.9,39.8,150.2,39.8z M150.2,195.8
				c-39.5,0-71.6-32-71.6-71.6s32-71.6,71.6-71.6s71.6,32,71.6,71.6S189.8,195.8,150.2,195.8z"/>
		</g>
		<g>
			<g>
				<path class="st5" d="M115.6,106.4c-1.8-5.2-3.6-11.6-5.2-19c-0.6-3-1.1-5-1.5-5.9c-1-3-2.3-4.4-3.9-4.2
					c-1.2,0.1-2.1,0.9-2.7,2.4c-0.4,1-0.6,2.3-0.7,3.8l-0.3,3.7c-0.9,6.5-2,12.9-3.4,19c-2-5.6-3.6-11-4.9-15.9
					c-1.1-4.6-2.1-7.6-2.8-9.1c-0.9-1.7-2-2-2.9-1.9c-1.1,0.1-1.9,0.8-2.5,2c-0.7,1.3-1.1,3.8-1.4,7.7l-0.5,8l-1.5,10.4
					c-0.6,4.2-0.8,7.8-0.6,10.6c0.1,0.8,0.4,1.6,0.9,2.1c0.6,0.7,1.4,1,2.3,0.9c0.9-0.1,2-0.6,2.5-2.6c0.3-3.1,0.5-5.5,0.5-7
					l1.6-13.6l0.1-1.7c1.6,5.6,3.3,11,5.1,15.9l0.9,2.7c0.4,1.1,0.8,2,1.2,2.7c0.7,1.2,1.6,1.8,2.7,1.7c1.3-0.1,2.2-1,2.8-2.5
					c0.5-1.3,0.9-2.9,1.3-4.9l0.9-4.9l2.6-13.3c1.9,7.7,3.3,12.9,4.1,15.3l1.2,4.3c0.6,1.9,1.1,3.2,1.7,4.1c0.7,1,1.6,1.5,2.6,1.4
					c0.8-0.1,1.4-0.4,1.9-1.1c0.5-0.6,0.8-1.4,0.7-2.3c0-0.4-0.2-1.2-1.3-4.3L115.6,106.4z"/>
				<path class="st6" d="M105.3,77.1c1.5,0,2.7,1.4,3.7,4.2c0.3,1,0.8,2.9,1.5,5.9c1.6,7.4,3.4,13.9,5.2,19l1.5,4.2
					c1.1,3.1,1.3,3.9,1.3,4.3c0.1,0.9-0.1,1.6-0.7,2.3c-0.5,0.6-1.2,1-1.9,1.1c-0.1,0-0.2,0-0.3,0c-0.9,0-1.7-0.5-2.4-1.4
					c-0.6-0.8-1.1-2.1-1.7-4.1l-1.2-4.3c-0.8-2.4-2.2-7.5-4.1-15.3l-2.6,13.3l-0.9,4.9c-0.4,2-0.8,3.6-1.3,4.9
					c-0.6,1.5-1.5,2.4-2.8,2.5c-0.1,0-0.2,0-0.3,0c-1,0-1.8-0.6-2.5-1.7c-0.4-0.7-0.8-1.6-1.2-2.7l-0.9-2.7
					c-1.8-4.9-3.5-10.3-5.1-15.9l-0.1,1.7l-1.6,13.6c0,1.5-0.1,3.9-0.5,7c-0.5,2-1.6,2.6-2.5,2.6c-0.1,0-0.2,0-0.3,0
					c-0.8,0-1.4-0.3-2-0.9c-0.5-0.5-0.8-1.3-0.9-2.1c-0.3-2.8-0.1-6.4,0.6-10.6l1.5-10.4l0.5-8c0.3-3.9,0.8-6.4,1.4-7.7
					c0.6-1.2,1.4-1.8,2.5-2c0.1,0,0.2,0,0.3,0c0.8,0,1.8,0.4,2.6,1.9c0.8,1.5,1.7,4.4,2.8,9.1c1.2,4.9,2.8,10.3,4.9,15.9
					c1.4-6.1,2.6-12.5,3.4-19l0.3-3.7c0.1-1.5,0.4-2.8,0.7-3.8c0.5-1.5,1.4-2.3,2.7-2.4C105.1,77.2,105.2,77.1,105.3,77.1
					 M105.3,73.4c-0.2,0-0.4,0-0.6,0c-2.7,0.3-4.8,2-5.8,4.9c-0.5,1.3-0.8,2.9-0.9,4.8l-0.3,3.6c-0.2,1.4-0.4,2.7-0.6,4
					c-0.1-0.5-0.2-0.9-0.3-1.4c-1.2-5-2.2-8.1-3.1-9.9c-1.3-2.5-3.4-4-5.9-4c-0.2,0-0.4,0-0.6,0c-2.4,0.2-4.3,1.6-5.5,4
					c-0.9,1.8-1.5,4.6-1.8,9.1l0,0l0,0l-0.5,7.9l-1.5,10.2c-0.7,4.5-0.9,8.4-0.6,11.5c0.2,1.6,0.8,3.1,1.8,4.3
					c1.2,1.4,2.9,2.1,4.7,2.1c0.2,0,0.4,0,0.7,0c2.9-0.3,5-2.3,5.8-5.5l0.1-0.2l0-0.2c0.2-1.8,0.3-3.3,0.4-4.6l0.6,1.7l0,0l0,0
					c0.5,1.3,1,2.5,1.5,3.4c1.8,3,4.4,3.5,5.7,3.5c0.2,0,0.4,0,0.6,0c2.7-0.3,4.8-2,5.9-4.9c0.6-1.5,1-3.4,1.4-5.6l0.4-2.3l1.1,3.9
					c0.7,2.4,1.4,4,2.2,5.1c1.4,2,3.3,3.1,5.4,3.1c0.2,0,0.4,0,0.6,0c1.7-0.2,3.3-1,4.4-2.4c1.2-1.4,1.7-3.1,1.5-5
					c-0.1-0.7-0.2-1.6-1.5-5.2l-1.5-4.2c-1.8-5-3.5-11.3-5-18.6c-0.7-3.3-1.2-5.2-1.6-6.4C110.9,75.7,108.5,73.4,105.3,73.4
					L105.3,73.4z"/>
			</g>
			<g>
				<path class="st5" d="M142.3,109.4c-0.3,0-0.8,0.1-1.4,0.3c-0.5,0.2-1,0.2-1.2,0.3c-1,0.1-2.4,0.3-4.2,0.5
					c-1.9,0.2-3.3,0.4-4.2,0.5c-2.6,0.3-3.1-0.1-3.2-0.2c-0.3-0.3-0.8-1.5-1.2-6.2c-0.1-0.9-0.2-1.9-0.2-3c-0.1-0.9-0.1-1.9-0.2-3
					l15.2-3c1.1-0.3,2.4-1.1,2.2-3.3c-0.1-0.9-0.4-1.6-1-2.2c-0.6-0.5-1.3-0.7-2.1-0.7c-0.7,0.1-2.4,0.4-5.3,1l-9.2,1.9
					c-0.1-3.8-0.3-6.9-0.5-9.1c-0.1-0.6-0.2-1.3-0.4-2.2c1.5-0.6,2.9-1.1,4.1-1.4c1.4-0.4,2.7-0.6,3.9-0.8c2.3-0.2,4.8-0.1,7.3,0.5
					c1.3,0.3,2.2-0.2,2.8-1.2c0.4-0.7,0.6-1.4,0.5-2.2c-0.1-1.4-0.9-2.3-2.1-2.7c-2.3-0.8-5.4-1-9.1-0.6c-1.4,0.1-3,0.4-4.6,0.9
					c-1.5,0.4-3.1,0.9-4.8,1.6c-0.5-0.4-1.2-0.6-1.8-0.5c-1.3,0.1-2.7,0.9-2.4,3.8c0.1,0.6,0.2,1.6,0.5,2.8c0.3,1.2,0.4,2.1,0.5,2.6
					c0.2,2.3,0.4,5.9,0.6,10.6c-0.2,0.5-0.3,1.1-0.3,1.7c0,0.5,0.2,0.9,0.4,1.3c0.1,1.4,0.1,2.8,0.2,4c0.1,1.3,0.2,2.5,0.3,3.5
					c0.5,5.6,1.6,9,3.3,10.5c1.6,1.4,4.7,1.8,9.6,1.3c4.8-0.5,7.8-0.9,9.2-1.4c1.5-0.5,2.2-1.6,2-3.3
					C145.3,110.2,144.2,109.2,142.3,109.4z"/>
				<path class="st6" d="M136.1,72.5c2.3,0,4.2,0.3,5.8,0.8c1.2,0.4,2,1.4,2.1,2.7c0.1,0.8-0.1,1.5-0.5,2.2
					c-0.5,0.8-1.2,1.3-2.1,1.3c-0.2,0-0.5,0-0.7-0.1c-1.8-0.4-3.6-0.6-5.3-0.6c-0.7,0-1.4,0-2,0.1c-1.2,0.1-2.5,0.4-3.9,0.8
					c-1.3,0.4-2.7,0.8-4.1,1.4c0.2,0.9,0.3,1.7,0.4,2.2c0.2,2.2,0.4,5.3,0.5,9.1l9.2-1.9c2.9-0.6,4.7-1,5.3-1c0.1,0,0.2,0,0.3,0
					c0.7,0,1.3,0.2,1.8,0.7c0.6,0.5,0.9,1.2,1,2.2c0.2,2.3-1.1,3.1-2.2,3.3l-15.2,3c0,1,0.1,2,0.2,3c0.1,1.1,0.1,2.1,0.2,3
					c0.5,4.7,1,5.9,1.2,6.2c0,0.1,0.3,0.3,1.6,0.3c0.4,0,0.9,0,1.6-0.1c0.9-0.1,2.3-0.3,4.2-0.5c1.9-0.2,3.3-0.4,4.2-0.5
					c0.3,0,0.7-0.1,1.2-0.3c0.6-0.2,1.1-0.3,1.4-0.3c0.1,0,0.3,0,0.4,0c1.6,0,2.6,1,2.8,2.9c0.2,1.7-0.5,2.8-2,3.3
					c-1.4,0.5-4.5,0.9-9.2,1.4c-1.3,0.1-2.4,0.2-3.4,0.2c-2.9,0-5-0.5-6.1-1.5c-1.7-1.5-2.8-4.9-3.3-10.5c-0.1-1.1-0.2-2.3-0.3-3.5
					c-0.1-1.2-0.1-2.6-0.2-4c-0.2-0.4-0.3-0.8-0.4-1.3c-0.1-0.6,0-1.2,0.3-1.7c-0.2-4.8-0.4-8.4-0.6-10.6c-0.1-0.6-0.2-1.5-0.5-2.6
					c-0.3-1.2-0.4-2.1-0.5-2.8c-0.3-2.9,1.2-3.7,2.4-3.8c0.1,0,0.2,0,0.3,0c0.6,0,1.1,0.2,1.6,0.5c1.7-0.7,3.3-1.2,4.8-1.6
					c1.6-0.4,3.1-0.7,4.6-0.9C134,72.6,135.1,72.5,136.1,72.5 M136.1,68.8C136.1,68.8,136.1,68.8,136.1,68.8c-1.1,0-2.4,0.1-3.7,0.2
					c-1.6,0.2-3.4,0.5-5.2,1c-1.2,0.3-2.4,0.7-3.7,1.2c-0.5-0.1-1.1-0.2-1.6-0.2c0,0,0,0,0,0c-0.2,0-0.4,0-0.6,0
					c-4.5,0.4-6.1,4.3-5.8,7.8c0.1,0.8,0.3,1.9,0.6,3.2c0.3,1.3,0.4,1.9,0.4,2.2c0.2,2.1,0.4,5.3,0.5,9.7c-0.2,0.9-0.3,1.7-0.2,2.7
					c0.1,0.6,0.2,1.2,0.4,1.8c0.1,1.2,0.1,2.4,0.2,3.4c0.1,1.3,0.2,2.6,0.3,3.7c0.7,6.8,2.1,10.8,4.6,12.9c1.9,1.6,4.7,2.4,8.5,2.4
					c1.1,0,2.4-0.1,3.8-0.2c5.2-0.5,8.3-1,10-1.6c3.1-1,4.9-3.8,4.6-7.2c-0.4-3.8-2.9-6.2-6.5-6.2c-0.3,0-0.5,0-0.8,0
					c-0.6,0.1-1.2,0.2-2.1,0.4c-0.4,0.1-0.5,0.1-0.6,0.2c-1,0.1-2.4,0.3-4.3,0.5c-1.8,0.2-3.1,0.4-4,0.5c-0.1-0.7-0.2-1.7-0.4-3
					c-0.1-0.8-0.1-1.6-0.2-2.5l12-2.4l0.1,0l0.1,0c3.4-0.8,5.4-3.7,5.1-7.3c-0.2-1.9-1-3.5-2.3-4.6c-1.2-1-2.7-1.6-4.2-1.6
					c-0.2,0-0.4,0-0.7,0c-0.6,0.1-1.8,0.2-5.8,1.1l-4.9,1c-0.1-1.6-0.2-3.1-0.3-4.3c0.3-0.1,0.7-0.2,1-0.3c1.2-0.3,2.3-0.5,3.3-0.6
					c0.5-0.1,1.1-0.1,1.7-0.1c1.4,0,2.9,0.2,4.5,0.5c0.5,0.1,1,0.2,1.5,0.2c2.2,0,4.1-1.1,5.3-3c0.8-1.4,1.2-2.9,1-4.5
					c-0.3-2.8-2-5-4.6-5.9C141.1,69.1,138.8,68.8,136.1,68.8L136.1,68.8L136.1,68.8z"/>
			</g>
			<g>
				<path class="st5" d="M153.6,114.1c0.9-0.1,2-0.6,2.5-2.6c0.3-3.1,0.5-5.5,0.5-7l1.6-13.6l0.1-1.7c1.6,5.6,3.3,11,5.1,15.9
					l0.9,2.7c0.4,1.1,0.8,2,1.2,2.7c0.7,1.2,1.6,1.8,2.7,1.7c1.3-0.1,2.2-1,2.8-2.5c0.5-1.3,0.9-2.9,1.3-4.9l0.9-4.9l2.6-13.3
					c1.9,7.7,3.3,12.9,4.1,15.3l1.2,4.3c0.6,1.9,1.1,3.2,1.7,4.1c0.7,1,1.6,1.5,2.6,1.4c0.8-0.1,1.4-0.4,1.9-1.1
					c0.5-0.6,0.8-1.4,0.7-2.3c-0.1-0.6-0.5-2-1.3-4.3l-1.5-4.2c-1.8-5.2-3.6-11.6-5.2-19.1c-0.6-3-1.1-5-1.5-5.9
					c-1-3-2.3-4.4-3.9-4.2c-1.2,0.1-2.1,0.9-2.7,2.4c-0.4,1-0.6,2.3-0.7,3.8l-0.3,3.7c-0.9,6.5-2,12.9-3.4,19
					c-2-5.6-3.6-11-4.9-15.9c-1.1-4.6-2.1-7.6-2.8-9.1c-0.9-1.7-2-2-2.9-1.9c-1.1,0.1-1.9,0.8-2.5,2c-0.7,1.3-1.1,3.8-1.4,7.7
					l-0.5,8l-1.5,10.4c-0.6,4.2-0.8,7.8-0.6,10.6c0.1,0.8,0.4,1.6,0.9,2.1C151.9,113.9,152.7,114.2,153.6,114.1z"/>
				<path class="st6" d="M174.9,70.4c1.5,0,2.7,1.4,3.7,4.2c0.3,1,0.8,2.9,1.5,5.9c1.6,7.4,3.4,13.9,5.2,19.1l1.5,4.2
					c0.8,2.3,1.2,3.7,1.3,4.3c0.1,0.9-0.1,1.6-0.7,2.3c-0.5,0.6-1.2,1-1.9,1.1c-0.1,0-0.2,0-0.3,0c-0.9,0-1.7-0.5-2.4-1.4
					c-0.6-0.8-1.1-2.1-1.7-4.1l-1.2-4.3c-0.8-2.4-2.2-7.5-4.1-15.3l-2.6,13.3l-0.9,4.9c-0.4,2-0.8,3.6-1.3,4.9
					c-0.6,1.5-1.5,2.4-2.8,2.5c-0.1,0-0.2,0-0.3,0c-1,0-1.8-0.6-2.5-1.7c-0.4-0.7-0.8-1.6-1.2-2.7l-0.9-2.7
					c-1.8-4.9-3.5-10.3-5.1-15.9l-0.1,1.7l-1.6,13.6c0,1.5-0.1,3.9-0.5,7c-0.5,2-1.6,2.6-2.5,2.6c-0.1,0-0.2,0-0.3,0
					c-0.8,0-1.4-0.3-2-0.9c-0.5-0.5-0.8-1.3-0.9-2.1c-0.3-2.8-0.1-6.4,0.6-10.6l1.5-10.4l0.5-8c0.3-3.9,0.8-6.4,1.4-7.7
					c0.6-1.2,1.4-1.8,2.5-2c0.1,0,0.2,0,0.3,0c0.8,0,1.8,0.4,2.6,1.9c0.8,1.5,1.7,4.4,2.8,9.1c1.2,4.9,2.8,10.3,4.9,15.9
					c1.4-6.1,2.6-12.5,3.4-19l0.3-3.7c0.1-1.5,0.4-2.8,0.7-3.8c0.5-1.5,1.4-2.3,2.7-2.4C174.7,70.4,174.8,70.4,174.9,70.4
					 M174.9,66.7L174.9,66.7c-0.2,0-0.4,0-0.6,0c-2.7,0.3-4.8,2-5.8,4.9c-0.5,1.3-0.8,2.9-0.9,4.8l-0.3,3.6c-0.2,1.4-0.4,2.7-0.6,4
					c-0.1-0.5-0.2-0.9-0.3-1.4c-1.2-5-2.2-8.1-3.1-9.9c-1.3-2.5-3.4-4-5.9-4c-0.2,0-0.4,0-0.6,0c-2.4,0.2-4.3,1.6-5.5,4
					c-0.9,1.8-1.5,4.6-1.8,9.1l0,0l0,0l-0.5,7.9l-1.5,10.2c-0.7,4.5-0.9,8.4-0.6,11.5c0.2,1.6,0.8,3.1,1.8,4.3
					c1.2,1.4,2.9,2.1,4.7,2.1c0.2,0,0.4,0,0.7,0c2.9-0.3,5-2.3,5.8-5.5l0.1-0.2l0-0.2c0.2-1.8,0.3-3.3,0.4-4.6l0.6,1.7
					c0.5,1.4,1,2.5,1.5,3.4c1.8,3,4.3,3.5,5.7,3.5c0.2,0,0.4,0,0.6,0c2.7-0.3,4.8-2,5.9-4.9c0.6-1.5,1-3.4,1.4-5.6l0.4-2.3l1.1,3.9
					c0.7,2.4,1.4,4,2.2,5.1c1.4,2,3.3,3.1,5.4,3.1c0.2,0,0.4,0,0.6,0c1.7-0.2,3.3-1,4.5-2.4c1.2-1.4,1.7-3.1,1.5-5
					c-0.1-0.8-0.4-2-1.5-5.2l-1.5-4.2c-1.8-5-3.5-11.3-5-18.6c-0.9-4.2-1.3-5.7-1.6-6.4C180.5,68.9,178.1,66.7,174.9,66.7
					L174.9,66.7z"/>
			</g>
			<g>
				<path class="st5" d="M215.1,105.5c-0.2-2-1.3-3-3.2-2.8c-0.3,0-0.8,0.1-1.4,0.3c-0.5,0.2-1,0.2-1.2,0.3c-1,0.1-2.4,0.3-4.2,0.5
					c-1.9,0.2-3.3,0.4-4.2,0.5c-2.6,0.3-3.1-0.1-3.2-0.2c-0.3-0.3-0.8-1.5-1.2-6.2c-0.1-0.9-0.2-1.9-0.2-3c-0.1-0.9-0.1-1.9-0.2-3
					l15.2-3c1.1-0.3,2.4-1.1,2.2-3.3c-0.1-0.9-0.4-1.6-1-2.2c-0.6-0.5-1.3-0.7-2.1-0.7c-0.7,0.1-2.4,0.4-5.3,1l-9.2,1.9
					c-0.1-3.8-0.3-6.9-0.5-9.1c-0.1-0.6-0.2-1.3-0.4-2.2c1.5-0.6,2.9-1.1,4.1-1.4c1.4-0.4,2.7-0.6,3.9-0.8c2.3-0.2,4.8-0.1,7.3,0.5
					c1.3,0.3,2.2-0.2,2.8-1.2c0.4-0.7,0.6-1.4,0.5-2.2c-0.1-1.4-0.9-2.3-2.1-2.7c-2.3-0.8-5.4-1-9.1-0.6c-1.4,0.1-3,0.4-4.6,0.9
					c-1.5,0.4-3.1,0.9-4.8,1.6c-0.5-0.4-1.2-0.6-1.8-0.5c-1.3,0.1-2.7,0.9-2.4,3.8c0.1,0.6,0.2,1.6,0.5,2.8c0.3,1.2,0.4,2,0.5,2.6
					c0.2,2.3,0.4,5.8,0.6,10.6c-0.2,0.5-0.3,1.1-0.3,1.7c0,0.5,0.2,0.9,0.4,1.3c0.1,1.4,0.1,2.8,0.2,4c0.1,1.3,0.2,2.5,0.3,3.5
					c0.5,5.6,1.6,9,3.3,10.5c1.6,1.4,4.7,1.8,9.6,1.3c4.8-0.5,7.8-0.9,9.2-1.4C214.6,108.2,215.3,107.1,215.1,105.5z"/>
				<path class="st6" d="M205.7,65.8c2.3,0,4.2,0.3,5.8,0.8c1.2,0.4,2,1.4,2.1,2.7c0.1,0.8-0.1,1.5-0.5,2.2
					c-0.5,0.8-1.2,1.3-2.1,1.3c-0.2,0-0.5,0-0.7-0.1c-1.8-0.4-3.6-0.6-5.3-0.6c-0.7,0-1.4,0-2,0.1c-1.2,0.1-2.5,0.4-3.9,0.8
					c-1.3,0.4-2.7,0.8-4.1,1.4c0.2,0.9,0.3,1.7,0.4,2.2c0.2,2.2,0.4,5.3,0.5,9.1l9.2-1.9c2.9-0.6,4.7-1,5.3-1c0.1,0,0.2,0,0.3,0
					c0.7,0,1.3,0.2,1.8,0.7c0.6,0.5,0.9,1.2,1,2.2c0.2,2.3-1.1,3.1-2.2,3.3l-15.2,3c0,1,0.1,2,0.2,3c0.1,1.1,0.1,2.1,0.2,3
					c0.5,4.7,1,5.9,1.2,6.2c0,0.1,0.3,0.3,1.6,0.3c0.4,0,0.9,0,1.6-0.1c0.9-0.1,2.3-0.3,4.2-0.5c1.9-0.2,3.3-0.4,4.2-0.5
					c0.3,0,0.7-0.1,1.2-0.3c0.6-0.2,1.1-0.3,1.4-0.3c0.1,0,0.3,0,0.4,0c1.6,0,2.6,1,2.8,2.9c0.2,1.7-0.5,2.8-2,3.3
					c-1.4,0.5-4.5,0.9-9.2,1.4c-1.3,0.1-2.4,0.2-3.4,0.2c-2.9,0-4.9-0.5-6.1-1.5c-1.7-1.5-2.8-4.9-3.3-10.5
					c-0.1-1.1-0.2-2.3-0.3-3.5c-0.1-1.2-0.1-2.6-0.2-4c-0.2-0.4-0.3-0.8-0.4-1.3c-0.1-0.6,0-1.2,0.3-1.7c-0.2-4.8-0.4-8.4-0.6-10.6
					c-0.1-0.6-0.2-1.5-0.5-2.6c-0.3-1.2-0.4-2.1-0.5-2.8c-0.3-2.9,1.2-3.7,2.4-3.8c0.1,0,0.2,0,0.3,0c0.6,0,1.1,0.2,1.6,0.5
					c1.7-0.7,3.3-1.2,4.8-1.6c1.6-0.4,3.1-0.7,4.6-0.9C203.5,65.8,204.6,65.8,205.7,65.8 M205.7,62c-1.1,0-2.4,0.1-3.7,0.2
					c-1.6,0.2-3.4,0.5-5.2,1c-1.2,0.3-2.4,0.7-3.7,1.2c-0.5-0.1-1.1-0.2-1.6-0.2c-0.2,0-0.4,0-0.6,0c-4.5,0.4-6.1,4.3-5.8,7.8
					c0.1,0.8,0.3,1.9,0.6,3.2c0.3,1.3,0.4,1.9,0.4,2.2c0.2,2.1,0.4,5.3,0.5,9.7c-0.2,0.9-0.3,1.7-0.2,2.7c0.1,0.6,0.2,1.2,0.4,1.8
					c0.1,1.2,0.1,2.3,0.2,3.4c0.1,1.3,0.2,2.6,0.3,3.7c0.7,6.8,2.1,10.8,4.6,12.9c1.9,1.6,4.7,2.4,8.5,2.4c1.1,0,2.4-0.1,3.8-0.2
					c5.2-0.5,8.3-1,10-1.6c3.1-1,4.9-3.8,4.6-7.2c-0.4-3.8-2.9-6.2-6.5-6.2c-0.3,0-0.5,0-0.8,0c-0.6,0.1-1.2,0.2-2.1,0.4
					c-0.4,0.1-0.5,0.1-0.6,0.2c-1,0.1-2.4,0.3-4.3,0.5c-1.8,0.2-3.1,0.4-4,0.5c-0.1-0.7-0.2-1.7-0.4-3c-0.1-0.8-0.1-1.6-0.2-2.5
					l12-2.4l0.1,0l0.1,0c3.4-0.8,5.4-3.7,5.1-7.3c-0.2-1.9-1-3.5-2.3-4.6c-1.2-1-2.7-1.6-4.2-1.6c0,0,0,0,0,0c-0.2,0-0.4,0-0.7,0
					c-0.6,0.1-1.8,0.2-5.8,1.1l-4.9,1c-0.1-1.6-0.2-3.1-0.3-4.3c0.3-0.1,0.7-0.2,1-0.3c1.2-0.3,2.3-0.5,3.3-0.6
					c0.5-0.1,1.1-0.1,1.7-0.1c1.4,0,2.9,0.2,4.5,0.5c0.5,0.1,1,0.2,1.5,0.2c2.2,0,4-1.1,5.3-3c0.8-1.4,1.2-2.9,1-4.5
					c-0.3-2.8-2-5-4.6-5.9C210.7,62.4,208.3,62,205.7,62L205.7,62z"/>
			</g>
			<g>
				<path class="st5" d="M84.4,141.3L84.4,141.3c-2.3-0.8-5.4-1-9.1-0.6c-1.4,0.1-3,0.4-4.6,0.9c-1.5,0.4-3.1,0.9-4.8,1.6
					c-0.5-0.4-1.2-0.6-1.8-0.5c-1.3,0.1-2.7,0.9-2.4,3.8c0.1,0.6,0.2,1.6,0.5,2.8c0.3,1.2,0.4,2.1,0.5,2.6c0.2,2.3,0.4,5.9,0.6,10.6
					c-0.2,0.5-0.3,1.1-0.3,1.7c0,0.5,0.2,0.9,0.4,1.3c0.1,1.4,0.1,2.8,0.2,4c0.1,1.3,0.2,2.5,0.3,3.5c0.5,5.6,1.6,9,3.3,10.5
					c1.6,1.4,4.7,1.8,9.6,1.3c4.8-0.5,7.8-0.9,9.2-1.4c1.5-0.5,2.2-1.6,2-3.3c-0.2-2-1.3-3-3.2-2.8c-0.3,0-0.8,0.1-1.4,0.3
					c-0.7,0.2-1,0.3-1.2,0.3c-1,0.1-2.4,0.3-4.2,0.5c-1.9,0.2-3.3,0.4-4.2,0.5c-2.6,0.3-3.1-0.1-3.2-0.2c-0.3-0.3-0.8-1.5-1.2-6.2
					c-0.1-0.9-0.2-1.9-0.2-3c-0.1-0.9-0.1-1.9-0.2-3l15.2-3c1.1-0.3,2.4-1.1,2.2-3.3c-0.1-0.9-0.4-1.6-1-2.2
					c-0.6-0.5-1.3-0.7-2.1-0.7c-0.7,0.1-2.4,0.4-5.3,1l-9.2,1.9c-0.1-3.8-0.3-6.9-0.5-9.1c-0.1-0.6-0.2-1.3-0.4-2.2
					c1.5-0.6,2.9-1.1,4.1-1.4c1.4-0.4,2.7-0.6,3.9-0.8c2.3-0.2,4.8-0.1,7.3,0.5c1.3,0.3,2.2-0.2,2.8-1.2c0.4-0.7,0.6-1.4,0.5-2.2
					C86.4,142.7,85.7,141.7,84.4,141.3z"/>
				<path class="st6" d="M78.6,140.5c2.3,0,4.2,0.3,5.8,0.8l0,0c1.2,0.4,2,1.4,2.1,2.7c0.1,0.8-0.1,1.5-0.5,2.2
					c-0.5,0.8-1.2,1.3-2.1,1.3c-0.2,0-0.5,0-0.7-0.1c-1.8-0.4-3.6-0.6-5.3-0.6c-0.7,0-1.4,0-2,0.1c-1.2,0.1-2.5,0.4-3.9,0.8
					c-1.3,0.4-2.7,0.8-4.1,1.4c0.2,0.9,0.3,1.7,0.4,2.2c0.2,2.2,0.4,5.3,0.5,9.1l9.2-1.9c2.9-0.6,4.7-1,5.3-1c0.1,0,0.2,0,0.3,0
					c0.7,0,1.3,0.2,1.8,0.7c0.6,0.5,0.9,1.2,1,2.2c0.2,2.3-1.1,3.1-2.2,3.3l-15.2,3c0,1,0.1,2,0.2,3c0.1,1.1,0.1,2.1,0.2,3
					c0.5,4.7,1,5.9,1.2,6.2c0,0.1,0.3,0.3,1.6,0.3c0.4,0,0.9,0,1.6-0.1c0.9-0.1,2.3-0.3,4.2-0.5c1.9-0.2,3.3-0.4,4.2-0.5
					c0.2,0,0.5-0.1,1.2-0.3c0.6-0.2,1.1-0.3,1.4-0.3c0.1,0,0.3,0,0.4,0c1.6,0,2.6,1,2.8,2.9c0.2,1.7-0.5,2.8-2,3.3
					c-1.4,0.5-4.5,0.9-9.2,1.4c-1.3,0.1-2.4,0.2-3.4,0.2c-2.9,0-4.9-0.5-6.1-1.5c-1.7-1.5-2.8-4.9-3.3-10.5
					c-0.1-1.1-0.2-2.3-0.3-3.5c-0.1-1.2-0.1-2.6-0.2-4c-0.2-0.4-0.3-0.8-0.4-1.3c-0.1-0.6,0-1.2,0.3-1.7c-0.2-4.8-0.4-8.4-0.6-10.6
					c-0.1-0.6-0.2-1.5-0.5-2.6c-0.3-1.2-0.4-2.1-0.5-2.8c-0.3-2.9,1.2-3.7,2.4-3.8c0.1,0,0.2,0,0.3,0c0.6,0,1.1,0.2,1.6,0.5
					c1.7-0.7,3.3-1.2,4.8-1.6c1.6-0.4,3.1-0.7,4.6-0.9C76.5,140.6,77.6,140.5,78.6,140.5 M78.6,136.8c-1.1,0-2.4,0.1-3.7,0.2
					c-1.6,0.2-3.4,0.5-5.2,1c-1.2,0.3-2.4,0.7-3.7,1.2c-0.5-0.1-1.1-0.2-1.6-0.2c0,0,0,0,0,0c-0.2,0-0.4,0-0.6,0
					c-4.5,0.4-6.1,4.3-5.8,7.8c0.1,0.8,0.3,1.9,0.6,3.2c0.3,1.3,0.4,1.9,0.4,2.2c0.2,2.1,0.4,5.3,0.5,9.7c-0.2,0.9-0.3,1.7-0.2,2.7
					c0.1,0.6,0.2,1.2,0.4,1.8c0.1,1.2,0.1,2.4,0.2,3.4c0.1,1.3,0.2,2.6,0.3,3.7c0.7,6.8,2.1,10.8,4.6,12.9c1.9,1.6,4.7,2.4,8.5,2.4
					c1.1,0,2.4-0.1,3.8-0.2c5.2-0.5,8.3-1,10-1.6c3.1-1,4.9-3.8,4.6-7.2c-0.4-3.8-2.9-6.2-6.5-6.2c-0.3,0-0.5,0-0.8,0
					c-0.6,0.1-1.2,0.2-2.1,0.4c-0.4,0.1-0.5,0.1-0.6,0.1c-1,0.1-2.4,0.3-4.3,0.5c-1.8,0.2-3.1,0.4-4,0.5c-0.1-0.7-0.2-1.7-0.4-3
					c-0.1-0.8-0.1-1.6-0.2-2.5l12-2.4l0.1,0l0.1,0c3.4-0.8,5.4-3.7,5.1-7.3c-0.2-1.9-1-3.5-2.3-4.6c-1.2-1-2.7-1.6-4.2-1.6
					c-0.2,0-0.4,0-0.7,0c-0.6,0.1-1.8,0.2-5.8,1.1l-4.9,1c-0.1-1.6-0.2-3.1-0.3-4.3c0.3-0.1,0.7-0.2,1-0.3c1.2-0.3,2.3-0.5,3.3-0.6
					c0.5-0.1,1.1-0.1,1.7-0.1c1.4,0,2.9,0.2,4.5,0.5c0.5,0.1,1,0.2,1.5,0.2c2.2,0,4.1-1.1,5.3-3c0.8-1.4,1.2-2.9,1-4.5
					c-0.3-2.8-2-5-4.6-5.9l-0.2-0.1l0,0C83.5,137.1,81.2,136.8,78.6,136.8L78.6,136.8z"/>
			</g>
			<g>
				<path class="st5" d="M102.5,143.1L102.5,143.1c-0.2-0.1-1.2-0.4-4.1-1.7c-2.9-1.3-3.7-1.4-4-1.4c-0.8,0.1-1.5,0.6-2.2,1.5
					c-0.6,0.9-0.9,1.8-0.8,2.6c0.2,2,0.5,4.9,1,8.8c0.4,3.9,0.8,6.8,1,8.8c0.2,1.8,0.4,4.4,0.6,7.9c0.2,3.5,0.4,6.2,0.6,8
					c0.1,0.8,0.4,1.5,1,2.1c0.6,0.6,1.3,0.8,2.1,0.7l0,0c1,0.6,2.3,1.1,4,1.4c1.5,0.3,2.8,0.3,4,0.2c4.5-0.4,7.8-1.7,10.1-3.8
					c2-1.8,3.5-4.2,4.5-7c1-2.8,1.3-5.7,1-8.7c-0.5-4.9-2.7-9.2-6.7-12.9C111,146.6,107,144.4,102.5,143.1z M97.4,147.8
					c5.3,2,8.8,3.5,10.3,4.4c4.8,2.8,7.4,6.6,7.9,11.1c0.2,1.9,0,3.9-0.7,5.8c-0.7,1.9-1.6,3.4-2.9,4.6c-1.4,1.2-3.7,2-7,2.4
					c-1.9,0.2-3.5-0.1-4.8-0.9c-0.1-0.1-0.2-0.1-0.3-0.2l-1-13.5L97.4,147.8z"/>
				<path class="st6" d="M94.5,140.1c0.4,0,1.2,0.2,3.9,1.4c3,1.3,3.9,1.6,4.1,1.7l0,0c4.5,1.2,8.5,3.4,11.8,6.6
					c4,3.7,6.3,8.1,6.7,12.9c0.3,2.9-0.1,5.8-1,8.7c-1,2.8-2.5,5.2-4.5,7c-2.2,2.1-5.6,3.3-10.1,3.8c-0.3,0-0.7,0-1.1,0
					c-0.9,0-1.8-0.1-2.9-0.3c-1.7-0.3-3.1-0.7-4-1.4l0,0c-0.1,0-0.2,0-0.3,0c-0.7,0-1.3-0.3-1.8-0.8c-0.6-0.5-0.9-1.3-1-2.1
					c-0.2-1.8-0.4-4.5-0.6-8c-0.2-3.5-0.4-6.2-0.6-7.9c-0.2-1.9-0.5-4.9-1-8.8c-0.4-3.9-0.8-6.8-1-8.8c-0.1-0.8,0.2-1.7,0.8-2.6
					C92.9,140.7,93.6,140.2,94.5,140.1C94.4,140.1,94.4,140.1,94.5,140.1 M103.9,176.1c0.3,0,0.7,0,1-0.1c3.3-0.3,5.7-1.1,7-2.4
					c1.3-1.2,2.3-2.7,2.9-4.6c0.7-1.9,0.9-3.8,0.7-5.8c-0.4-4.5-3.1-8.3-7.9-11.1c-1.5-0.9-5-2.4-10.3-4.4l1.5,13.6l1,13.5
					c0.1,0,0.2,0.1,0.3,0.2C101.2,175.7,102.4,176.1,103.9,176.1 M94.5,136.3c-0.2,0-0.3,0-0.5,0c-1.3,0.1-3.3,0.8-4.9,3.1
					c-1.1,1.7-1.6,3.4-1.5,5.1c0.2,2,0.5,4.9,1,8.9c0.4,3.9,0.8,6.8,0.9,8.7c0.2,1.7,0.3,4.3,0.5,7.8c0.2,3.6,0.4,6.3,0.6,8.1
					c0.2,1.7,0.9,3.3,2.1,4.4c1.1,1,2.3,1.6,3.7,1.7c1.2,0.6,2.7,1,4.4,1.3c1.2,0.2,2.4,0.3,3.5,0.3c0.5,0,1,0,1.4-0.1
					c5.3-0.5,9.4-2.1,12.3-4.8c2.4-2.3,4.3-5.1,5.5-8.5c1.2-3.3,1.6-6.8,1.2-10.2c-0.6-5.8-3.2-11-7.9-15.3c-3.8-3.5-8.3-6-13.4-7.4
					c-0.2-0.1-0.9-0.3-3.7-1.5C96.5,136.6,95.5,136.3,94.5,136.3L94.5,136.3z M103.4,172.3l-0.8-11.2l0-0.1l0-0.1l-0.8-7.5
					c2.4,1,3.5,1.6,4,1.9c3.8,2.2,5.7,4.9,6.1,8.2c0.1,1.4,0,2.8-0.5,4.2c-0.4,1.3-1.1,2.3-1.9,3.1c-0.2,0.2-1.4,1-4.8,1.4
					c-0.2,0-0.5,0-0.7,0C103.7,172.3,103.5,172.3,103.4,172.3L103.4,172.3z"/>
			</g>
			<g>
				<path class="st5" d="M139.2,144.3c1.5,0.1,2.7,0.1,3.7,0c0.7-0.1,1.3-0.4,1.8-0.9c0.6-0.6,0.8-1.4,0.7-2.4
					c-0.2-2.3-1.6-2.9-2.7-3c-4.6-0.3-8.4-0.3-11.4,0c-3.3,0.3-5.6,0.6-6.9,0.9c-1.2,0.2-2.5,1-2.3,3.3c0.1,0.9,0.4,1.6,1,2.1
					c0.6,0.5,1.3,0.8,2.1,0.7l0,0l5.3-0.7c0.1,5.6,0.4,10.3,0.8,14.1c0.1,1.1,0.3,2.6,0.6,4.2c0.3,1.7,0.4,3.1,0.6,4.2
					c0.2,1.6,0.2,3,0.2,4.2c-2,0.5-3.4,0.8-4.3,0.9c-0.8,0.1-1.4,0.5-1.9,1.1c-0.4,0.6-0.6,1.4-0.6,2.2c0.1,0.8,0.4,1.5,1,2.1
					c0.6,0.6,1.3,0.8,2.1,0.7c1-0.1,2.5-0.4,4.5-0.9c1.9-0.5,3.4-0.8,4.3-0.9c0.8-0.1,2.1-0.2,3.8-0.4c1.7-0.2,2.9-0.3,3.8-0.4
					c0.8-0.1,1.4-0.4,1.9-1.1c0.5-0.6,0.6-1.4,0.6-2.3c-0.1-0.8-0.4-1.5-1-2.1c-0.6-0.6-1.3-0.8-2.1-0.7l-6.5,0.7
					c0-1.2-0.1-2.4-0.2-3.8c-0.1-1.2-0.3-2.6-0.5-4.4c-0.2-1.7-0.4-3.2-0.5-4.3c-0.4-4.2-0.7-8.8-0.8-13.5L139.2,144.3z"/>
				<path class="st6" d="M136.5,137.9c1.9,0,4,0.1,6.3,0.2c1.1,0.1,2.5,0.6,2.7,3c0.1,0.9-0.1,1.7-0.7,2.4c-0.5,0.5-1.1,0.8-1.8,0.9
					c-0.5,0.1-1.2,0.1-1.9,0.1c-0.6,0-1.2,0-1.9-0.1l-3.1-0.2c0.1,4.7,0.4,9.2,0.8,13.5c0.1,1.2,0.3,2.6,0.5,4.3
					c0.2,1.7,0.4,3.2,0.5,4.4c0.1,1.4,0.2,2.6,0.2,3.8l6.5-0.7c0.1,0,0.2,0,0.3,0c0.7,0,1.3,0.2,1.8,0.7c0.6,0.5,0.9,1.2,1,2.1
					c0.1,0.9-0.1,1.6-0.6,2.3c-0.5,0.7-1.1,1-1.9,1.1c-0.8,0.1-2.1,0.2-3.8,0.4c-1.7,0.2-2.9,0.3-3.8,0.4c-1,0.1-2.4,0.4-4.3,0.9
					c-2,0.5-3.5,0.8-4.5,0.9c-0.1,0-0.2,0-0.3,0c-0.7,0-1.3-0.2-1.8-0.7c-0.6-0.5-0.9-1.2-1-2.1c-0.1-0.8,0.1-1.6,0.6-2.2
					c0.5-0.7,1.1-1.1,1.9-1.1c0.9-0.1,2.3-0.4,4.3-0.9c0-1.3-0.1-2.7-0.2-4.2c-0.1-1.1-0.3-2.5-0.6-4.2c-0.3-1.7-0.4-3.1-0.6-4.2
					c-0.4-3.7-0.6-8.5-0.8-14.1l-5.3,0.7l0,0c-0.1,0-0.2,0-0.3,0c-0.7,0-1.3-0.2-1.8-0.7c-0.6-0.5-0.9-1.2-1-2.1
					c-0.2-2.3,1.1-3.1,2.3-3.3c1.2-0.3,3.5-0.5,6.9-0.9C132.8,137.9,134.5,137.9,136.5,137.9 M136.5,134.1L136.5,134.1
					c-2,0-3.9,0.1-5.5,0.2c-3.5,0.3-5.9,0.6-7.3,0.9c-3.5,0.7-5.6,3.6-5.2,7.3c0.2,1.8,0.9,3.4,2.2,4.5c1.2,1.1,2.7,1.7,4.3,1.7
					c0.2,0,0.4,0,0.7,0l0.1,0l0.1,0l1.2-0.2c0.2,3.9,0.4,7.3,0.6,10.2c0.1,1.2,0.3,2.7,0.6,4.4c0.2,1.6,0.4,2.9,0.5,4
					c0,0.3,0.1,0.6,0.1,0.9c-0.4,0.1-0.7,0.1-0.8,0.1c-1.9,0.2-3.5,1.1-4.6,2.7c-1,1.4-1.4,3-1.2,4.7c0.2,1.7,0.9,3.3,2.1,4.4
					c1.2,1.2,2.7,1.8,4.4,1.8c0.2,0,0.4,0,0.6,0c1.2-0.1,2.9-0.5,5.1-1c2.3-0.6,3.3-0.7,3.8-0.8c0.9-0.1,2.2-0.2,3.9-0.4
					c1.7-0.2,2.9-0.3,3.7-0.4c1.9-0.2,3.5-1.1,4.6-2.7c1-1.4,1.4-3,1.2-4.8c-0.2-1.7-0.9-3.3-2.1-4.4c-1.2-1.2-2.7-1.8-4.4-1.8
					c0,0,0,0,0,0c-0.2,0-0.4,0-0.6,0l0,0l0,0l-2.7,0.3c0,0,0,0,0,0c-0.1-1.2-0.3-2.7-0.5-4.5c-0.2-1.7-0.4-3.1-0.5-4.2
					c-0.3-2.9-0.5-6-0.7-9.2c0.4,0,0.8,0,1.1,0c0.8,0,1.6,0,2.2-0.1c1.6-0.2,3-0.9,4.2-2l0,0l0,0c1.3-1.4,1.8-3.2,1.6-5.2
					c-0.4-3.7-2.7-6.1-6.2-6.3C140.6,134.2,138.4,134.1,136.5,134.1L136.5,134.1z"/>
			</g>
			<g>
				<path class="st5" d="M178.7,135.1c-0.6-0.6-1.3-0.8-2.1-0.7c-1.1,0.1-2.9,0.2-5.1,0.2c-2.3,0-4,0.1-5.2,0.2
					c-0.9,0.1-2.3,0.2-4.1,0.5c-1.8,0.2-3.2,0.4-4.1,0.5c-0.9,0.1-2.1,0.1-3.6,0c-1.9-0.1-3.1-0.1-3.7-0.1c-0.9,0-1.6,0.4-2.1,1.2
					c-0.4,0.7-0.6,1.4-0.5,2.2c0.1,1.5,1,2.5,2.5,2.8c2,0.4,4.7,0.4,8,0.1l1.5-0.2c0.3,2.1,0.8,5.3,1.5,9.6c0.8,4.3,1.3,7.7,1.5,10
					c0.1,0.9,0.3,2.1,0.5,3.7c0.3,1.6,0.4,2.9,0.5,3.7c0,0.2,0,0.6,0,1.1c0,0.5,0,0.9,0,1.2c0.1,0.9,0.5,1.6,1.1,2.1
					c0.6,0.5,1.3,0.7,2.1,0.7c0.8-0.1,1.8-0.5,2.2-2.2c0.3-0.9,0.3-2,0.2-3.2c-0.1-0.6-0.2-1.5-0.4-2.7c-0.2-1.2-0.4-2-0.4-2.6
					c-0.3-2.7-0.8-6.5-1.6-11.3c-0.8-4.8-1.3-8.4-1.6-10.7l1.1-0.1c1.2-0.1,2.9-0.2,5.1-0.2c2.3,0,4.1-0.1,5.2-0.2
					c0.8-0.1,1.4-0.5,1.9-1.1c0.5-0.6,0.7-1.4,0.6-2.2C179.6,136.3,179.3,135.6,178.7,135.1z"/>
				<path class="st6" d="M176.9,134.3c0.7,0,1.3,0.2,1.8,0.7c0.6,0.5,0.9,1.3,1,2.1c0.1,0.8-0.1,1.6-0.6,2.2c-0.5,0.7-1.1,1-1.9,1.1
					c-1.1,0.1-2.9,0.2-5.2,0.2c-2.2,0-4,0.1-5.1,0.2l-1.1,0.1c0.3,2.3,0.8,5.9,1.6,10.7c0.8,4.8,1.3,8.6,1.6,11.3
					c0.1,0.6,0.2,1.5,0.4,2.6c0.2,1.2,0.4,2.1,0.4,2.7c0.1,1.2,0,2.3-0.2,3.2c-0.5,1.7-1.5,2.1-2.2,2.2c-0.1,0-0.2,0-0.3,0
					c-0.6,0-1.2-0.2-1.8-0.7c-0.6-0.5-1-1.2-1.1-2.1c0-0.3,0-0.7,0-1.2c0-0.5,0-0.8,0-1.1c-0.1-0.8-0.2-2-0.5-3.7
					c-0.3-1.6-0.4-2.9-0.5-3.7c-0.2-2.4-0.7-5.7-1.5-10c-0.8-4.3-1.3-7.5-1.5-9.6l-1.5,0.2c-1.6,0.2-3,0.2-4.3,0.2
					c-1.4,0-2.7-0.1-3.7-0.3c-1.5-0.3-2.3-1.2-2.5-2.8c-0.1-0.8,0.1-1.5,0.5-2.2c0.5-0.8,1.2-1.2,2.1-1.2c0.1,0,0.2,0,0.3,0
					c0.6,0,1.7,0,3.4,0.1c0.6,0,1.1,0,1.6,0c0.8,0,1.5,0,2-0.1c0.9-0.1,2.3-0.2,4.1-0.5c1.8-0.2,3.2-0.4,4.1-0.5
					c1.2-0.1,2.9-0.2,5.2-0.2c2.3,0,4-0.1,5.1-0.2C176.7,134.3,176.8,134.3,176.9,134.3 M176.9,130.6c-0.2,0-0.4,0-0.6,0
					c-0.7,0.1-2.1,0.2-4.8,0.2c-2.4,0-4.2,0.1-5.5,0.2c-0.9,0.1-2.3,0.2-4.2,0.5c-1.8,0.2-3.1,0.4-4,0.4c-0.4,0-1,0.1-1.7,0.1
					c-0.4,0-0.9,0-1.5,0c-1.6-0.1-2.8-0.1-3.5-0.1c-0.2,0-0.3,0-0.4,0c-2.1,0-4,1.1-5.2,3c-0.8,1.4-1.2,2.9-1,4.5
					c0.3,3.2,2.4,5.5,5.5,6.1c1.3,0.2,2.7,0.4,4.4,0.4c0.8,0,1.7,0,2.6-0.1c0.3,1.7,0.6,3.8,1,6.2c0.7,4.2,1.2,7.5,1.5,9.7
					c0.1,0.9,0.3,2.3,0.5,4c0.3,1.9,0.4,2.9,0.5,3.4c0,0,0,0,0,0c0,0,0,0.2,0,0.5c0,0.7,0,1.3,0,1.8c0.2,1.9,1,3.5,2.5,4.6
					c1.2,1,2.6,1.5,4.1,1.5c0.2,0,0.4,0,0.6,0c2.6-0.3,4.7-2.1,5.5-4.9c0.4-1.4,0.5-2.9,0.4-4.6c-0.1-0.7-0.2-1.7-0.5-3
					c-0.3-1.4-0.3-2-0.4-2.3c-0.3-2.8-0.8-6.7-1.6-11.5c-0.4-2.6-0.8-4.8-1.1-6.6c0.6,0,1.3,0,2,0c2.5,0,4.3-0.1,5.5-0.2
					c1.9-0.2,3.5-1.1,4.6-2.6c1-1.4,1.4-3,1.3-4.8c-0.2-1.8-0.9-3.3-2.2-4.5C180.1,131.2,178.5,130.6,176.9,130.6L176.9,130.6z"/>
			</g>
			<g>
				<path class="st5" d="M197.3,131.2c-5.3,0.5-9.5,3.7-12.5,9.4c-2.7,5.1-3.7,10.7-3.1,16.6c0.5,4.9,2.5,8.8,6,11.6
					c3.3,2.6,7.2,3.7,11.6,3.3c5.3-0.5,9.4-3.7,12.2-9.5c2.4-5,3.3-10.5,2.8-16.4c-0.6-5.7-2.3-9.8-5.1-12.2
					C206.3,131.6,202.4,130.7,197.3,131.2z M206.6,159.1c-1.9,4.2-4.5,6.4-8,6.7c-2.9,0.3-5.4-0.4-7.6-2c-2.2-1.7-3.5-4.2-3.8-7.2
					c-0.4-4.4,0.3-8.6,2.3-12.5c2.1-4.2,4.9-6.4,8.3-6.8c3.5-0.3,6.1,0.2,7.6,1.5c1.6,1.4,2.7,4,3,7.9
					C209,151.2,208.4,155.3,206.6,159.1L206.6,159.1z"/>
				<path class="st6" d="M199.8,131c3.9,0,7,1,9.2,2.9c2.9,2.4,4.6,6.5,5.1,12.2c0.6,5.9-0.4,11.4-2.8,16.4c-2.8,5.8-6.9,9-12.2,9.5
					c-0.6,0.1-1.2,0.1-1.8,0.1c-3.6,0-6.9-1.1-9.8-3.4c-3.5-2.8-5.5-6.7-6-11.6c-0.6-5.9,0.5-11.5,3.1-16.6c3-5.7,7.2-8.9,12.5-9.4
					C198.2,131.1,199,131,199.8,131 M197.4,165.9c0.4,0,0.8,0,1.2-0.1c3.5-0.3,6.1-2.5,8-6.7l0,0c1.7-3.8,2.4-8,1.9-12.4
					c-0.4-3.9-1.4-6.5-3-7.9c-1.2-1-3.1-1.6-5.6-1.6c-0.6,0-1.3,0-2,0.1c-3.5,0.3-6.3,2.6-8.3,6.8c-1.9,3.9-2.7,8.1-2.3,12.5
					c0.3,3.1,1.6,5.5,3.8,7.2C192.9,165.2,195,165.9,197.4,165.9 M199.8,127.3c-0.9,0-1.9,0-2.9,0.1c-4.6,0.4-10.9,2.8-15.5,11.4
					c-3,5.8-4.2,12-3.6,18.7c0.6,5.9,3.1,10.7,7.4,14.1c3.5,2.8,7.6,4.2,12.1,4.2c0.7,0,1.4,0,2.1-0.1c4.6-0.4,11-2.8,15.2-11.6
					c2.7-5.6,3.8-11.8,3.1-18.4c-0.6-6.7-2.8-11.6-6.4-14.7C208.5,128.6,204.6,127.3,199.8,127.3L199.8,127.3z M197.4,162.2
					c-1.6,0-2.9-0.4-4-1.3c-1.4-1.1-2.1-2.6-2.3-4.6c-0.4-3.7,0.3-7.2,1.9-10.5c2.2-4.4,4.6-4.6,5.4-4.7c0.6-0.1,1.1-0.1,1.7-0.1
					c2.1,0,3,0.5,3.2,0.7c0.3,0.3,1.3,1.4,1.7,5.4c0.4,3.8-0.2,7.4-1.6,10.5l-0.1,0.2c-1.7,3.7-3.5,4.3-4.9,4.4
					C198,162.2,197.7,162.2,197.4,162.2L197.4,162.2z"/>
			</g>
			<g>
				<path class="st5" d="M244.9,161.2L244.9,161.2c-2.5-2.7-6-5.2-10.5-7.5c2-1,3.8-2.3,5.1-3.9c2-2.3,2.8-4.8,2.6-7.5
					c-0.5-5.4-4.1-9.7-10.7-12.7c-1.5-0.7-3.4-1.1-5.6-1.2l-5.5,0c-1.2,0-2.1,0.6-2.7,1.7c-0.5,0.9-0.6,1.8-0.5,2.9
					c0.1,0.9,0.3,2.2,0.6,3.8c0.3,1.6,0.5,2.9,0.6,3.7c0.1,1.5,0.2,3.8,0.2,6.9c0,3.1,0.1,5.4,0.2,7c0.1,1.3,0.4,3.3,0.7,5.9
					c0.4,2.6,0.6,4.6,0.7,5.9c0.1,0.9,0.4,1.6,1,2.1c0.6,0.6,1.3,0.8,2.1,0.7c0.8-0.1,1.4-0.5,1.9-1.1c0.5-0.6,0.6-1.4,0.6-2.3
					l-0.6-5l-0.6-4.2c5.9,1.4,11.5,4.5,16.7,9.2c1.4,1.2,3,1,4-0.4c0.5-0.7,0.7-1.4,0.6-2.3C245.7,162.4,245.4,161.7,244.9,161.2z
					 M223.9,145.2c0-2-0.1-3.7-0.2-5.1c-0.1-0.8-0.2-1.8-0.5-3.1l-0.4-2.4l2.7,0c2.3,0.1,4.6,0.9,6.9,2.4c2.4,1.7,3.8,3.6,4,5.8
					c0,0.4-0.1,1-0.9,2.2c-0.6,0.9-1.3,1.6-2,2.1c-1.7,1.3-4.5,2.1-8.2,2.4c-0.2,0-0.5,0-1,0.1c-0.2,0-0.3,0-0.4,0L223.9,145.2z"/>
				<path class="st6" d="M225.7,128.4c2.2,0.1,4,0.5,5.6,1.2c6.6,3.1,10.2,7.4,10.7,12.7c0.3,2.7-0.6,5.2-2.6,7.5
					c-1.3,1.5-3.1,2.8-5.1,3.9c4.5,2.3,8.1,4.8,10.5,7.5l0,0c0.5,0.6,0.8,1.2,0.9,1.9c0.1,0.8-0.1,1.6-0.6,2.3
					c-0.5,0.7-1.3,1.2-2.1,1.2c-0.6,0-1.3-0.3-1.9-0.8c-5.2-4.7-10.8-7.8-16.7-9.2l0.6,4.2l0.6,5c0.1,0.9-0.1,1.6-0.6,2.3
					c-0.5,0.7-1.1,1-1.9,1.1c-0.1,0-0.2,0-0.3,0c-0.7,0-1.3-0.2-1.8-0.7c-0.6-0.5-0.9-1.2-1-2.1c-0.1-1.3-0.4-3.3-0.7-5.9
					c-0.4-2.6-0.6-4.6-0.7-5.9c-0.2-1.6-0.2-3.9-0.2-7c0-3.1-0.1-5.4-0.2-6.9c-0.1-0.8-0.3-2.1-0.6-3.7c-0.3-1.7-0.5-2.9-0.6-3.8
					c-0.1-1.1,0.1-2,0.5-2.9c0.6-1.1,1.5-1.7,2.7-1.7L225.7,128.4 M223.9,149.7c0.1,0,0.3,0,0.4,0c0.4,0,0.8,0,1-0.1
					c3.7-0.4,6.5-1.2,8.2-2.4c0.7-0.6,1.4-1.3,2-2.1c0.8-1.1,0.9-1.8,0.9-2.2c-0.2-2.2-1.5-4.1-4-5.8c-2.3-1.6-4.6-2.4-6.9-2.4
					l-2.7,0l0.4,2.4c0.2,1.2,0.4,2.3,0.5,3.1c0.1,1.3,0.2,3.1,0.2,5.1L223.9,149.7 M225.8,124.6L225.8,124.6l-5.6,0
					c-2.6,0-4.8,1.4-6,3.7c-0.8,1.5-1.1,3.2-0.9,5c0.1,1,0.3,2.3,0.6,4.1c0.4,1.9,0.5,2.9,0.5,3.4c0.1,0.9,0.2,2.8,0.2,6.5
					c0,3.2,0.1,5.7,0.2,7.4c0.1,1.4,0.4,3.4,0.8,6.1c0.4,2.5,0.6,4.5,0.7,5.7c0.2,1.8,0.9,3.3,2.1,4.5c1.2,1.2,2.7,1.8,4.4,1.8
					c0.2,0,0.4,0,0.6,0c1.9-0.2,3.5-1.1,4.6-2.7c1-1.4,1.4-3,1.2-4.8l0,0l0,0l-0.4-3.3c3.4,1.5,6.6,3.7,9.7,6.5
					c1.3,1.1,2.8,1.8,4.4,1.8c2,0,3.9-1,5.1-2.7c1-1.4,1.5-3.1,1.3-4.8c-0.1-1.4-0.7-2.8-1.7-3.9l0,0l-0.1-0.1
					c-1.7-1.9-3.9-3.7-6.4-5.3c0.4-0.3,0.7-0.7,1-1.1c2.6-3,3.8-6.6,3.5-10.3c-0.5-4.7-3-11.2-12.8-15.8
					C230.9,125.3,228.5,124.7,225.8,124.6L225.8,124.6L225.8,124.6z M227.7,145.5l0-0.3c0-2.1-0.1-4-0.2-5.4c0-0.3-0.1-0.7-0.1-1.1
					c1,0.3,2,0.8,3,1.5c1.2,0.9,2,1.7,2.3,2.6c0,0.1-0.1,0.1-0.1,0.2c-0.4,0.5-0.8,1-1.2,1.3C230.8,144.6,229.8,145.1,227.7,145.5
					L227.7,145.5z"/>
			</g>
		</g>
	</g>
	<g>
		<path class="st7" d="M253.9,164.5c-0.1-0.1-0.2-0.3-0.4-0.3c-0.2,0.1-0.2,0.2-0.2,0.4c0,0.1,0,0.2,0,0.3c-0.5,0.2-0.9,0.6-1.4,0.2
			c-0.5-0.4-0.4-1-0.3-1.6c0-0.2,0.1-0.3,0.1-0.5c0.7-3.3-0.8-6.6-3.7-8.3c0,0,0,0,0,0c0-0.1-0.1-0.2-0.2-0.2
			c-0.1-0.1-0.1-0.1-0.2-0.2c0,0,0,0,0,0c-0.1-0.4-0.3-0.6-0.7-0.7c0,0,0,0,0,0c-0.2-0.3-0.4-0.5-0.8-0.7c0,1.1,0,2,0,2.9
			c-0.1,1.7-0.5,2.2-2,2.5c-0.2,0-0.4,0.1-0.5,0.3c-0.6,1.6-1.6,3-1.8,4.8c0,0.5-0.1,0.9-0.2,1.4c-0.3,1-1.2,1.2-1.8,0.4
			c-0.2-0.2-0.3-0.4-0.4-0.6c0,0,0,0,0,0c0-0.1,0-0.3,0-0.4c0-0.3,0.1-0.5,0-0.8c0-0.3,0.2-0.7-0.1-0.8c-0.3-0.1-0.4,0.3-0.6,0.5
			c-0.1,0.1-0.1,0.2-0.1,0.3c0,0,0,0,0.1,0.1c0,0,0,0-0.1-0.1c-2.1,2.9-2.2,5.4-0.4,8.3c0.1,0.2,0.2,0.3,0.3,0.5
			c0.2,0.3,0.4,0.5,0.3,0.9c-0.1,0.4-0.6,0-0.8,0.3c0.6,0.6,1,1.3,1.8,1.7c0.3,0.4,0.7,0.6,1.1,0.8c0.5,0.4,1.1,0.6,1.7,0.7
			c0.1,0.1,0.3,0.1,0.4,0.2c1,0.4,2,0.4,3.1,0.2c0.3-0.1,0.7-0.1,1-0.2l0,0c0.9-0.2,1.8-0.3,2.6-0.8c0.1,0,0.1-0.1,0.2-0.1
			c0,0,0,0,0,0c0.1-0.1,0.3-0.1,0.4-0.2c-0.1,0-0.1,0-0.2-0.1c0,0,0,0,0,0c0.1,0,0.1,0,0.2,0.1c0.5-0.2,1-0.5,1.3-1
			c-0.4-0.1-0.3-0.4-0.1-0.7c0.3-0.4,0.6-0.7,0.9-1C254.6,170.9,255.3,167,253.9,164.5z M250.1,172.3c0-0.1-0.1-0.1-0.1-0.2
			C250.1,172.1,250.1,172.2,250.1,172.3z M250.8,172.3C250.8,172.3,250.8,172.3,250.8,172.3c0.1,0.8-0.1,1.4-0.5,1.9
			C250.7,173.7,250.9,173.1,250.8,172.3z M240.7,171.7c-0.1,0.9-0.4,1.8,0.2,2.6c0,0,0,0,0,0C240.3,173.4,240.6,172.5,240.7,171.7z
			 M241.2,174.4c0.5,0.4,0.8,0.8,1.2,1.3C242.1,175.3,241.7,174.8,241.2,174.4z M247.4,176.5c0.2-0.2,0.4-0.4,0.6-0.6
			C247.8,176.1,247.6,176.3,247.4,176.5z"/>
		<path class="st7" d="M251.8,174.7c0,0,0,0,0-0.3c-0.1,0.1-0.1,0.2-0.2,0.3C251.7,174.7,251.7,174.8,251.8,174.7
			C251.8,174.8,251.8,174.7,251.8,174.7z"/>
		<path class="st7" d="M240.4,158.2c-2,2.8-2,2.8-1.8,3.9C240.1,160.9,240.6,159.8,240.4,158.2z"/>
	</g>
	<g class="st3">
		<path class="st8" d="M247.2,176.8c-0.3,0.1-0.7,0.1-1,0.2c0-0.4,0.4-0.6,0.5-0.9c0.5-0.7,1.3-1.2,1.4-2.1c0.3-1.6-0.4-2.8-1.5-3.8
			c-0.7-0.7-1.4-0.6-2.2,0c-0.6,0.5-1,1.1-1.4,1.8c-0.8,1.1-0.7,1.9,0,3c0.2,0.3,0.4,0.6,0.6,0.9c0.1,0.3,0.5,0.6,0.2,0.9
			c-0.2,0.3-0.5,0-0.8,0.1c-0.1-0.1-0.3-0.1-0.4-0.2c0.1-0.1,0.6-0.1,0.3-0.4c-0.7-0.6-1.2-1.5-2-2c-0.7-0.9-0.2-1.9-0.2-2.9
			c0.6-0.2,0.4-0.8,0.5-1.2c0.1-0.4,0.1-0.8,0.5-0.9c0.9-0.2,1.4-1,1.7-1.9c0.3-0.9,0.7-1.7,1.1-2.5c0.5-1,2-1.6,3-1.3
			c1.1,0.4,0.9,1.4,0.8,2.3c-0.1,0.8,0.1,1.4,0.6,2.1c0.7,1.1,1.5,2.2,1.3,3.7c-0.1,0.6,0.2,0.7,0.7,0.5c0.1,1-0.2,1.8-1,2.4
			C248.8,175.3,247.9,175.9,247.2,176.8z"/>
		<path class="st9" d="M240.7,171.3c0,1-0.5,2,0.2,2.9c-0.2,0.6,0,1.1,0,1.7c-0.4-0.2-0.8-0.4-1.1-0.8c0.2-1.3,0.2-2.6-0.5-3.8
			c-0.2-0.4-0.3-0.8-0.3-1.3c0.3-2.2-1-4.3-0.3-6.5c0,0-0.1-0.1-0.2-0.2c0-0.1,0.1-0.2,0.1-0.3c0.2-0.2,0.3-0.6,0.6-0.5
			c0.4,0.1,0.1,0.5,0.1,0.8c0,0.3,0,0.5,0,0.8c-0.2,0.2-0.2,0.3,0,0.4c0,0,0,0,0,0c-0.1,0.8,0.3,1.3,1,1.6c1.5,0.5,2.2,0,2.4-1.7
			c0.2-1.8,0.5-3.4,1.4-5c0.3-0.5,0.5-0.8,1.1-0.7c0.5,0.1,0.8-0.2,1-0.7c0.5-1.1,0.6-2.3,0.4-3.4c-0.1-0.4-0.3-0.9,0.3-1.1
			c0,0,0,0,0,0c0.1,0.4,0.3,0.7,0.7,0.7c0,0,0,0,0,0c0.1,0.1,0.1,0.2,0.2,0.2c0,0,0,0,0,0c0.1,0.1,0.1,0.2,0.2,0.2c0,0,0,0,0,0
			c0,0.7,0.5,1.1,0.9,1.5c1.1,1.2,1.9,2.4,1.9,4.3c0,1.2-0.3,2.4-0.3,3.6c-0.1,0.9,0.5,1.3,1.2,1.5c0.6,0.1,1.4,0.3,1.6-0.7
			c0-0.1,0-0.2,0-0.3c0.4,0.1,0.4,0.5,0.3,0.7c-0.6,0.9-1.1,1.8-2.1,2.4c-0.5,0-1,0.4-1.5,0.2c-0.8-0.2-1.2-1.2-0.9-2.3
			c0.3-1,0.3-1.9,0.4-2.9c0.1-1.9-0.6-3.5-1.8-4.9c-0.2-0.3-0.6-0.5-0.6,0.1c-0.1,1.4-1,2.1-1.7,3c-1.1,1.3-2,2.6-2.2,4.5
			c-0.2,1.5-0.5,3-2.3,3.4c-0.4,0.1-0.5,0.3-0.4,0.7C240.5,170.1,240.6,170.7,240.7,171.3z"/>
		<path class="st10" d="M243.1,176.8c0.3,0,0.6,0.2,0.8-0.1c0.2-0.3-0.1-0.6-0.2-0.9c-0.2-0.3-0.4-0.6-0.6-0.9c-0.8-1.1-0.8-1.9,0-3
			c0.4-0.6,0.8-1.3,1.4-1.8c0.7-0.6,1.5-0.6,2.2,0c1.1,1,1.8,2.2,1.5,3.8c-0.2,0.9-1,1.4-1.4,2.1c-0.2,0.3-0.5,0.5-0.5,0.9
			C245.1,177.2,244.1,177.2,243.1,176.8z"/>
		<path class="st11" d="M251.5,167.7c1-0.5,1.5-1.4,2.1-2.4c0.1-0.3,0.1-0.6-0.3-0.7c0-0.2,0-0.4,0.2-0.4c0.2-0.1,0.3,0.1,0.4,0.3
			c1.4,2.5,0.8,6.4-1.4,8.6c-0.3,0.3-0.7,0.6-0.9,1c-0.2,0.3-0.3,0.6,0.2,0.7c0,0,0.1,0,0.1,0c0,0,0,0,0-0.3
			c-0.4,0.8-0.9,1.1-1.5,1.3c-0.1,0-0.1,0-0.2-0.1c0.7-0.7,0.6-1.7,1.1-2.5c0.8-1.1,0.7-1.2-0.3-1.9c-0.1-0.4,0-0.9,0.2-1.3
			C251.4,169.3,251.6,168.6,251.5,167.7z"/>
		<path class="st11" d="M238.6,163.4c0.1,0.1,0.2,0.2,0.2,0.2c-0.7,2.2,0.6,4.3,0.3,6.5c0,0.4,0.1,0.9,0.3,1.3
			c0.7,1.2,0.6,2.5,0.5,3.8c-0.8-0.3-1.2-1-1.8-1.7c0.2-0.3,0.7,0.1,0.8-0.3c0.1-0.3-0.2-0.6-0.3-0.9c-0.1-0.2-0.2-0.3-0.3-0.5
			C236.4,168.8,236.5,166.4,238.6,163.4z"/>
		<path class="st11" d="M247,153.7c-0.6,0.2-0.4,0.7-0.3,1.1c0.2,1.2,0.1,2.3-0.4,3.4c-0.2,0.5-0.5,0.8-1,0.7
			c-0.6-0.1-0.8,0.2-1.1,0.7c-0.8,1.6-1.2,3.2-1.4,5c-0.1,1.7-0.9,2.2-2.4,1.7c-0.7-0.2-1.1-0.7-1-1.6c0.1,0.2,0.3,0.4,0.4,0.6
			c0.7,0.8,1.5,0.6,1.8-0.4c0.1-0.4,0.2-0.9,0.2-1.4c0.2-1.8,1.2-3.2,1.8-4.8c0.1-0.2,0.3-0.2,0.5-0.3c1.5-0.3,1.9-0.9,2-2.5
			c0-0.9,0-1.9,0-2.9C246.6,153.2,246.8,153.4,247,153.7z"/>
		<path class="st11" d="M253.3,165c-0.2,1-1,0.9-1.6,0.7c-0.7-0.2-1.3-0.6-1.2-1.5c0.1-1.2,0.3-2.4,0.3-3.6c0-1.8-0.8-3.1-1.9-4.3
			c-0.4-0.4-1-0.8-0.9-1.5c2.9,1.7,4.3,5,3.7,8.3c0,0.2-0.1,0.3-0.1,0.5c-0.1,0.6-0.2,1.1,0.3,1.6
			C252.4,165.6,252.8,165.2,253.3,165z"/>
		<path class="st9" d="M238.5,162c-0.1-1.1-0.1-1.1,1.8-3.9C240.6,159.8,240.1,160.9,238.5,162z"/>
		<path class="st9" d="M251,171.3c1,0.7,1.1,0.8,0.3,1.9c-0.6,0.8-0.4,1.8-1.1,2.5c-0.1,0.1-0.1,0.2-0.2,0.2c-0.1,0-0.1,0.1-0.2,0.1
			c0-0.4,0-0.9,0-1.3c0.8-0.6,1.1-1.4,1-2.4C250.8,172,250.9,171.7,251,171.3z"/>
		<path class="st12" d="M241,175.9c0-0.6-0.2-1.1,0-1.7c0.8,0.5,1.3,1.4,2,2c0.3,0.3-0.2,0.3-0.3,0.4
			C242,176.6,241.5,176.3,241,175.9z"/>
		<path class="st12" d="M249.8,174.7c0,0.4,0,0.9,0,1.3c-0.8,0.4-1.7,0.6-2.6,0.8C247.9,175.9,248.8,175.3,249.8,174.7z"/>
		<path class="st11" d="M247.7,154.4c-0.4,0-0.6-0.3-0.7-0.7C247.3,153.8,247.5,154.1,247.7,154.4z"/>
		<path class="st11" d="M239.4,164.7c-0.2-0.1-0.2-0.3,0-0.4C239.4,164.4,239.4,164.6,239.4,164.7z"/>
		<path class="st12" d="M249.9,176c0.1-0.1,0.1-0.2,0.2-0.2c0.1,0,0.1,0,0.2,0.1C250.2,175.8,250.1,175.9,249.9,176z"/>
		<path class="st11" d="M247.8,154.7c-0.1-0.1-0.1-0.2-0.2-0.2C247.7,154.5,247.8,154.6,247.8,154.7z"/>
		<path class="st11" d="M248,154.9c-0.1-0.1-0.1-0.2-0.2-0.2C247.9,154.7,248,154.7,248,154.9z"/>
		<path class="st12" d="M251,171.3c-0.1,0.3-0.1,0.7-0.2,1c-0.5,0.2-0.8,0.1-0.7-0.5c0.2-1.5-0.6-2.6-1.3-3.7
			c-0.4-0.7-0.7-1.3-0.6-2.1c0.1-0.9,0.3-1.9-0.8-2.3c-1-0.4-2.4,0.2-3,1.3c-0.4,0.8-0.8,1.6-1.1,2.5c-0.3,0.9-0.7,1.6-1.7,1.9
			c-0.4,0.1-0.5,0.5-0.5,0.9c-0.1,0.4,0.1,1-0.5,1.2c-0.1-0.6-0.2-1.2-0.4-1.7c-0.1-0.3,0-0.6,0.4-0.7c1.8-0.4,2.2-1.9,2.3-3.4
			c0.2-1.9,1.1-3.2,2.2-4.5c0.8-0.9,1.7-1.7,1.7-3c0-0.6,0.4-0.4,0.6-0.1c1.2,1.4,1.9,3,1.8,4.9c0,1-0.1,1.9-0.4,2.9
			c-0.3,1.1,0.2,2.1,0.9,2.3c0.5,0.2,1-0.3,1.5-0.2c0.1,0.8-0.1,1.6-0.4,2.3C250.9,170.5,250.9,170.9,251,171.3z"/>
	</g>
</g>
</svg>
