<?xml version="1.0" encoding="utf-8"?>
<!-- Generator: Adobe Illustrator 21.0.0, SVG Export Plug-In . SVG Version: 6.00 Build 0)  -->
<svg version="1.1" xmlns="http://www.w3.org/2000/svg" xmlns:xlink="http://www.w3.org/1999/xlink" x="0px" y="0px"
	 viewBox="0 0 300 300" style="enable-background:new 0 0 300 300;" xml:space="preserve">
<style type="text/css">
	.st0{display:none;}
	.st1{display:inline;opacity:0.3;fill:#606060;}
	.st2{opacity:0.1;}
</style>
<g id="Calque_1" class="st0">
	<path class="st1" d="M150,39.6c-49.9,0-90.4,40.5-90.4,90.4c0,49.9,40.5,90.4,90.4,90.4s90.4-40.5,90.4-90.4
		C240.4,80.1,199.9,39.6,150,39.6z M211,98c4.4,0,8,3.6,8,8s-3.6,8-8,8s-8-3.6-8-8S206.6,98,211,98z M184,63.5c2.2,0,4,1.8,4,4
		c0,2.2-1.8,4-4,4s-4-1.8-4-4C180,65.3,181.8,63.5,184,63.5z M167.5,73.8H180v12.5h-12.5V73.8z M173.8,119.2v28.5h-28.5v-28.5H173.8
		z M123,49h12v12h-12V49z M132,80c9.9,0,18,8.1,18,18c0,9.9-8.1,18-18,18s-18-8.1-18-18C114,88.1,122.1,80,132,80z M103.9,70.2
		l2.6-7.9l2.6,7.9h8.3l-6.7,4.9l2.6,7.9l-6.7-4.9l-6.7,4.9l2.6-7.9l-6.7-4.9H103.9z M91.5,115h21v21h-21V115z M76.5,98
		c4.4,0,8,3.6,8,8s-3.6,8-8,8s-8-3.6-8-8S72.1,98,76.5,98z M93.3,164.6l-8.8-6.4l-8.8,6.4l3.4-10.4l-8.8-6.4h10.9l3.4-10.4l3.4,10.4
		h10.9l-8.8,6.4L93.3,164.6z M122.5,201c-11.3,0-20.5-9.2-20.5-20.5s9.2-20.5,20.5-20.5s20.5,9.2,20.5,20.5S133.8,201,122.5,201z
		 M153,163.7l-5.7,4.1l2.2-6.7l-5.7-4.1h7l2.2-6.7l2.2,6.7h7l-5.7,4.1l2.2,6.7L153,163.7z M181.5,201.5h-20v-20h20V201.5z
		 M181.5,171.8c-4.3,0-7.8-3.5-7.8-7.8s3.5-7.8,7.8-7.8s7.8,3.5,7.8,7.8S185.8,171.8,181.5,171.8z M192.5,115.2L184,109l-8.5,6.2
		l3.2-10l-8.5-6.2h10.5l3.2-10l3.2,10h10.5l-8.5,6.2L192.5,115.2z M217.2,180.2l-6.2-4.5l-6.2,4.5l2.4-7.2l-6.2-4.5h7.6l2.4-7.2
		l2.4,7.2h7.6l-6.2,4.5L217.2,180.2z M207.5,144.5v-17h17v17H207.5z"/>
</g>
<g id="Calque_2">
	<g class="st2">
		<path d="M240.5,130c0,24.9-8.8,46.1-26.4,63.8c-17.6,17.6-38.9,26.4-63.8,26.4s-46.1-8.8-63.8-26.4
			c-17.6-17.6-26.4-38.9-26.4-63.8s8.8-46.1,26.4-63.8s38.9-26.4,63.8-26.4s46.1,8.8,63.8,26.4C231.7,83.8,240.5,105.1,240.5,130z
			 M197.1,189.4l-32.5-32.5h-58.3v-16.8h41.4l-20.3-20.3c-10.3,0.4-17.1,1-20.5,1.5c-6.2,1.1-10.1,3.1-11.6,6.1
			c-0.4,0.7-0.6,1.5-0.6,2.4c0,1.8,0.6,3.7,1.9,5.7c-3.7-2.8-5.5-6.3-5.5-10.7c0-1,0.1-2.1,0.4-3.1c1.5-6.6,10.2-10.5,26.2-11.6
			L90.7,83C79.9,96.8,74.5,112.4,74.5,130c0,20.9,7.4,38.8,22.2,53.6c14.8,14.8,32.7,22.2,53.6,22.2
			C167.7,205.7,183.3,200.3,197.1,189.4z M95.5,156.9h-5.2v-16.8h5.2V156.9z M103.6,156.9h-5.5v-16.8h5.5V156.9z M226,130
			c0-20.9-7.4-38.8-22.2-53.6c-14.8-14.8-32.7-22.2-53.6-22.2c-18.7,0-35.2,6.1-49.3,18.2l36.7,36.7c17.5-1.4,26.9-6.3,28.4-14.8
			c0.1-1,0.2-1.9,0.2-2.9c0-10-8.5-15.7-25.4-17.1c2.6-0.4,5.5-0.6,8.5-0.6c18.2,0,27.3,6,27.3,18.1c0,2-0.3,4.1-0.8,6.3
			c-2.6,10.9-12.2,17.7-29,20.2l21.8,21.8h39.5v16.8h-22.7l22.2,22.2C219.9,165,226,148.6,226,130z"/>
	</g>
</g>
</svg>
