<?xml version="1.0" encoding="utf-8"?>
<!-- Generator: Adobe Illustrator 21.0.0, SVG Export Plug-In . SVG Version: 6.00 Build 0)  -->
<svg version="1.1" id="Calque_1" xmlns="http://www.w3.org/2000/svg" xmlns:xlink="http://www.w3.org/1999/xlink" x="0px" y="0px"
	 viewBox="0 0 300 300" style="enable-background:new 0 0 300 300;" xml:space="preserve">
<style type="text/css">
	.st0{display:none;}
	.st1{display:inline;opacity:0.3;fill:#606060;enable-background:new    ;}
	.st2{display:inline;opacity:0.1;}
	.st3{opacity:0.15;}
	.st4{opacity:0.2;}
	.st5{fill:#7A7A7A;}
	.st6{fill:#FFFFFF;}
	.st7{fill:#FFFFFF;stroke:#FFFFFF;stroke-width:4;stroke-linejoin:round;stroke-miterlimit:10;}
	.st8{fill:#FED242;}
	.st9{fill:#FE6A2B;}
	.st10{fill:#FAF9CE;}
	.st11{fill:#EE360C;}
	.st12{fill:#FE9E45;}
	.st13{font-family:'Muli-ExtraLight';}
	.st14{font-size:14.1311px;}
</style>
<g id="Calque_1_1_" class="st0">
	<path class="st1" d="M150,39.6c-49.9,0-90.4,40.5-90.4,90.4s40.5,90.4,90.4,90.4s90.4-40.5,90.4-90.4S199.9,39.6,150,39.6z M211,98
		c4.4,0,8,3.6,8,8s-3.6,8-8,8s-8-3.6-8-8S206.6,98,211,98z M184,63.5c2.2,0,4,1.8,4,4s-1.8,4-4,4s-4-1.8-4-4S181.8,63.5,184,63.5z
		 M167.5,73.8H180v12.5h-12.5V73.8z M173.8,119.2v28.5h-28.5v-28.5H173.8z M123,49h12v12h-12V49z M132,80c9.9,0,18,8.1,18,18
		s-8.1,18-18,18s-18-8.1-18-18S122.1,80,132,80z M103.9,70.2l2.6-7.9l2.6,7.9h8.3l-6.7,4.9l2.6,7.9l-6.7-4.9L99.9,83l2.6-7.9
		l-6.7-4.9H103.9z M91.5,115h21v21h-21V115z M76.5,98c4.4,0,8,3.6,8,8s-3.6,8-8,8s-8-3.6-8-8S72.1,98,76.5,98z M93.3,164.6l-8.8-6.4
		l-8.8,6.4l3.4-10.4l-8.8-6.4h10.9l3.4-10.4l3.4,10.4h10.9l-8.8,6.4L93.3,164.6z M122.5,201c-11.3,0-20.5-9.2-20.5-20.5
		s9.2-20.5,20.5-20.5s20.5,9.2,20.5,20.5S133.8,201,122.5,201z M153,163.7l-5.7,4.1l2.2-6.7l-5.7-4.1h7l2.2-6.7l2.2,6.7h7l-5.7,4.1
		l2.2,6.7L153,163.7z M181.5,201.5h-20v-20h20V201.5z M181.5,171.8c-4.3,0-7.8-3.5-7.8-7.8s3.5-7.8,7.8-7.8s7.8,3.5,7.8,7.8
		S185.8,171.8,181.5,171.8z M192.5,115.2L184,109l-8.5,6.2l3.2-10l-8.5-6.2h10.5l3.2-10l3.2,10h10.5l-8.5,6.2L192.5,115.2z
		 M217.2,180.2l-6.2-4.5l-6.2,4.5l2.4-7.2l-6.2-4.5h7.6l2.4-7.2l2.4,7.2h7.6l-6.2,4.5L217.2,180.2z M207.5,144.5v-17h17v17H207.5z"
		/>
</g>
<g id="Calque_2" class="st0">
	<g class="st2">
		<path d="M240.5,130c0,24.9-8.8,46.1-26.4,63.8c-17.6,17.6-38.9,26.4-63.8,26.4s-46.1-8.8-63.8-26.4
			c-17.6-17.6-26.4-38.9-26.4-63.8s8.8-46.1,26.4-63.8s38.9-26.4,63.8-26.4s46.1,8.8,63.8,26.4C231.7,83.8,240.5,105.1,240.5,130z
			 M197.1,189.4l-32.5-32.5h-58.3v-16.8h41.4l-20.3-20.3c-10.3,0.4-17.1,1-20.5,1.5c-6.2,1.1-10.1,3.1-11.6,6.1
			c-0.4,0.7-0.6,1.5-0.6,2.4c0,1.8,0.6,3.7,1.9,5.7c-3.7-2.8-5.5-6.3-5.5-10.7c0-1,0.1-2.1,0.4-3.1c1.5-6.6,10.2-10.5,26.2-11.6
			L90.7,83c-10.8,13.8-16.2,29.4-16.2,47c0,20.9,7.4,38.8,22.2,53.6s32.7,22.2,53.6,22.2C167.7,205.7,183.3,200.3,197.1,189.4z
			 M95.5,156.9h-5.2v-16.8h5.2V156.9z M103.6,156.9h-5.5v-16.8h5.5V156.9z M226,130c0-20.9-7.4-38.8-22.2-53.6s-32.7-22.2-53.6-22.2
			c-18.7,0-35.2,6.1-49.3,18.2l36.7,36.7c17.5-1.4,26.9-6.3,28.4-14.8c0.1-1,0.2-1.9,0.2-2.9c0-10-8.5-15.7-25.4-17.1
			c2.6-0.4,5.5-0.6,8.5-0.6c18.2,0,27.3,6,27.3,18.1c0,2-0.3,4.1-0.8,6.3c-2.6,10.9-12.2,17.7-29,20.2l21.8,21.8h39.5v16.8h-22.7
			l22.2,22.2C219.9,165,226,148.6,226,130z"/>
	</g>
</g>
<g id="Calque_3">
	<g class="st3">
		<g class="st4">
			<path d="M151.5,56.2c-36.4,0-65.8,29.5-65.8,65.8s29.5,65.8,65.8,65.8s65.8-29.5,65.8-65.8S188,56.2,151.5,56.2z M151.5,177.9
				c-30.8,0-55.9-25-55.9-55.9s25-55.9,55.9-55.9s55.9,25,55.9,55.9S182.4,177.9,151.5,177.9z"/>
		</g>
		<g>
			<g>
				<path class="st5" d="M124.6,108.2c-1.4-4.1-2.8-9-4.1-14.8c-0.5-2.3-0.9-3.9-1.2-4.6c-0.8-2.3-1.8-3.4-3-3.3
					c-0.9,0.1-1.6,0.7-2.1,1.9c-0.3,0.8-0.5,1.8-0.5,3l-0.2,2.9c-0.7,5.1-1.6,10.1-2.7,14.8c-1.6-4.4-2.8-8.6-3.8-12.4
					c-0.9-3.6-1.6-5.9-2.2-7.1c-0.7-1.3-1.6-1.6-2.3-1.5c-0.9,0.1-1.5,0.6-2,1.6c-0.5,1-0.9,3-1.1,6l-0.4,6.2l-1.2,8.1
					c-0.5,3.3-0.6,6.1-0.5,8.3c0.1,0.6,0.3,1.2,0.7,1.6c0.5,0.5,1.1,0.8,1.8,0.7s1.6-0.5,2-2c0.2-2.4,0.4-4.3,0.4-5.5l1.2-10.6
					l0.1-1.3c1.2,4.4,2.6,8.6,4,12.4l0.7,2.1c0.3,0.9,0.6,1.6,0.9,2.1c0.5,0.9,1.2,1.4,2.1,1.3c1-0.1,1.7-0.8,2.2-2
					c0.4-1,0.7-2.3,1-3.8l0.7-3.8l2-10.4c1.5,6,2.6,10.1,3.2,11.9l0.9,3.4c0.5,1.5,0.9,2.5,1.3,3.2c0.5,0.8,1.2,1.2,2,1.1
					c0.6-0.1,1.1-0.3,1.5-0.9c0.4-0.5,0.6-1.1,0.5-1.8c0-0.3-0.2-0.9-1-3.4L124.6,108.2z"/>
				<path class="st6" d="M116.5,85.3c1.2,0,2.1,1.1,2.9,3.3c0.2,0.8,0.6,2.3,1.2,4.6c1.2,5.8,2.7,10.8,4.1,14.8l1.2,3.3
					c0.9,2.4,1,3,1,3.4c0.1,0.7-0.1,1.2-0.5,1.8c-0.4,0.5-0.9,0.8-1.5,0.9c-0.1,0-0.2,0-0.2,0c-0.7,0-1.3-0.4-1.9-1.1
					c-0.5-0.6-0.9-1.6-1.3-3.2l-0.9-3.4c-0.6-1.9-1.7-5.9-3.2-11.9l-2,10.4l-0.7,3.8c-0.3,1.6-0.6,2.8-1,3.8c-0.5,1.2-1.2,1.9-2.2,2
					c-0.1,0-0.2,0-0.2,0c-0.8,0-1.4-0.5-2-1.3c-0.3-0.5-0.6-1.2-0.9-2.1l-0.7-2.1c-1.4-3.8-2.7-8-4-12.4l-0.1,1.3l-1.2,10.6
					c0,1.2-0.1,3-0.4,5.5c-0.4,1.6-1.2,2-2,2c-0.1,0-0.2,0-0.2,0c-0.6,0-1.1-0.2-1.6-0.7c-0.4-0.4-0.6-1-0.7-1.6
					c-0.2-2.2-0.1-5,0.5-8.3l1.2-8.1l0.4-6.2c0.2-3,0.6-5,1.1-6c0.5-0.9,1.1-1.4,2-1.6c0.1,0,0.2,0,0.2,0c0.6,0,1.4,0.3,2,1.5
					c0.6,1.2,1.3,3.4,2.2,7.1c0.9,3.8,2.2,8,3.8,12.4c1.1-4.8,2-9.8,2.7-14.8l0.2-2.9c0.1-1.2,0.3-2.2,0.5-3
					c0.4-1.2,1.1-1.8,2.1-1.9C116.4,85.4,116.4,85.3,116.5,85.3 M116.5,82.4c-0.2,0-0.3,0-0.5,0c-2.1,0.2-3.7,1.6-4.5,3.8
					c-0.4,1-0.6,2.3-0.7,3.7l-0.2,2.8c-0.2,1.1-0.3,2.1-0.5,3.1c-0.1-0.4-0.2-0.7-0.2-1.1c-0.9-3.9-1.7-6.3-2.4-7.7
					c-1-2-2.7-3.1-4.6-3.1c-0.2,0-0.3,0-0.5,0c-1.9,0.2-3.4,1.2-4.3,3.1c-0.7,1.4-1.2,3.6-1.4,7.1l0,0l0,0l-0.4,6.2l-1.2,8
					c-0.5,3.5-0.7,6.6-0.5,9c0.2,1.2,0.6,2.4,1.4,3.4c0.9,1.1,2.3,1.6,3.7,1.6c0.2,0,0.3,0,0.5,0c2.3-0.2,3.9-1.8,4.5-4.3l0.1-0.2
					v-0.2c0.2-1.4,0.2-2.6,0.3-3.6l0.5,1.3l0,0l0,0c0.4,1,0.8,2,1.2,2.7c1.4,2.3,3.4,2.7,4.4,2.7c0.2,0,0.3,0,0.5,0
					c2.1-0.2,3.7-1.6,4.6-3.8c0.5-1.2,0.8-2.7,1.1-4.4l0.3-1.8l0.9,3c0.5,1.9,1.1,3.1,1.7,4c1.1,1.6,2.6,2.4,4.2,2.4
					c0.2,0,0.3,0,0.5,0c1.3-0.2,2.6-0.8,3.4-1.9c0.9-1.1,1.3-2.4,1.2-3.9c-0.1-0.5-0.2-1.2-1.2-4.1l-1.2-3.3
					c-1.4-3.9-2.7-8.8-3.9-14.5c-0.5-2.6-0.9-4.1-1.2-5C120.9,84.2,119,82.4,116.5,82.4L116.5,82.4z"/>
			</g>
			<g>
				<path class="st5" d="M145.4,110.5c-0.2,0-0.6,0.1-1.1,0.2c-0.4,0.2-0.8,0.2-0.9,0.2c-0.8,0.1-1.9,0.2-3.3,0.4
					c-1.5,0.2-2.6,0.3-3.3,0.4c-2,0.2-2.4-0.1-2.5-0.2c-0.2-0.2-0.6-1.2-0.9-4.8c-0.1-0.7-0.2-1.5-0.2-2.3c-0.1-0.7-0.1-1.5-0.2-2.3
					l11.9-2.3c0.9-0.2,1.9-0.9,1.7-2.6c-0.1-0.7-0.3-1.2-0.8-1.7c-0.5-0.4-1-0.5-1.6-0.5c-0.5,0.1-1.9,0.3-4.1,0.8l-7.2,1.5
					c-0.1-3-0.2-5.4-0.4-7.1c-0.1-0.5-0.2-1-0.3-1.7c1.2-0.5,2.3-0.9,3.2-1.1c1.1-0.3,2.1-0.5,3-0.6c1.8-0.2,3.7-0.1,5.7,0.4
					c1,0.2,1.7-0.2,2.2-0.9c0.3-0.5,0.5-1.1,0.4-1.7c-0.1-1.1-0.7-1.8-1.6-2.1c-1.8-0.6-4.2-0.8-7.1-0.5c-1.1,0.1-2.3,0.3-3.6,0.7
					c-1.2,0.3-2.4,0.7-3.7,1.2c-0.4-0.3-0.9-0.5-1.4-0.4c-1,0.1-2.1,0.7-1.9,3c0.1,0.5,0.2,1.2,0.4,2.2c0.2,0.9,0.3,1.6,0.4,2
					c0.2,1.8,0.3,4.6,0.5,8.3c-0.2,0.4-0.2,0.9-0.2,1.3c0,0.4,0.2,0.7,0.3,1c0.1,1.1,0.1,2.2,0.2,3.1c0.1,1,0.2,2,0.2,2.7
					c0.4,4.4,1.2,7,2.6,8.2c1.2,1.1,3.7,1.4,7.5,1c3.7-0.4,6.1-0.7,7.2-1.1c1.2-0.4,1.7-1.2,1.6-2.6
					C147.7,111.1,146.9,110.3,145.4,110.5z"/>
				<path class="st6" d="M140.5,81.7c1.8,0,3.3,0.2,4.5,0.6c0.9,0.3,1.6,1.1,1.6,2.1c0.1,0.6-0.1,1.2-0.4,1.7c-0.4,0.6-0.9,1-1.6,1
					c-0.2,0-0.4,0-0.5-0.1c-1.4-0.3-2.8-0.5-4.1-0.5c-0.5,0-1.1,0-1.6,0.1c-0.9,0.1-2,0.3-3,0.6c-1,0.3-2.1,0.6-3.2,1.1
					c0.2,0.7,0.2,1.3,0.3,1.7c0.2,1.7,0.3,4.1,0.4,7.1l7.2-1.5c2.3-0.5,3.7-0.8,4.1-0.8c0.1,0,0.2,0,0.2,0c0.5,0,1,0.2,1.4,0.5
					c0.5,0.4,0.7,0.9,0.8,1.7c0.2,1.8-0.9,2.4-1.7,2.6l-11.9,2.3c0,0.8,0.1,1.6,0.2,2.3c0.1,0.9,0.1,1.6,0.2,2.3
					c0.4,3.7,0.8,4.6,0.9,4.8c0,0.1,0.2,0.2,1.2,0.2c0.3,0,0.7,0,1.2-0.1c0.7-0.1,1.8-0.2,3.3-0.4c1.5-0.2,2.6-0.3,3.3-0.4
					c0.2,0,0.5-0.1,0.9-0.2c0.5-0.2,0.9-0.2,1.1-0.2c0.1,0,0.2,0,0.3,0c1.2,0,2,0.8,2.2,2.3c0.2,1.3-0.4,2.2-1.6,2.6
					c-1.1,0.4-3.5,0.7-7.2,1.1c-1,0.1-1.9,0.2-2.7,0.2c-2.3,0-3.9-0.4-4.8-1.2c-1.3-1.2-2.2-3.8-2.6-8.2c-0.1-0.9-0.2-1.8-0.2-2.7
					s-0.1-2-0.2-3.1c-0.2-0.3-0.2-0.6-0.3-1c-0.1-0.5,0-0.9,0.2-1.3c-0.2-3.7-0.3-6.6-0.5-8.3c-0.1-0.5-0.2-1.2-0.4-2
					c-0.2-0.9-0.3-1.6-0.4-2.2c-0.2-2.3,0.9-2.9,1.9-3c0.1,0,0.2,0,0.2,0c0.5,0,0.9,0.2,1.2,0.4c1.3-0.5,2.6-0.9,3.7-1.2
					c1.2-0.3,2.4-0.5,3.6-0.7C138.9,81.8,139.8,81.7,140.5,81.7 M140.5,78.8L140.5,78.8c-0.9,0-1.9,0.1-2.9,0.2
					c-1.2,0.2-2.7,0.4-4.1,0.8c-0.9,0.2-1.9,0.5-2.9,0.9c-0.4-0.1-0.9-0.2-1.2-0.2l0,0c-0.2,0-0.3,0-0.5,0c-3.5,0.3-4.8,3.4-4.5,6.1
					c0.1,0.6,0.2,1.5,0.5,2.5c0.2,1,0.3,1.5,0.3,1.7c0.2,1.6,0.3,4.1,0.4,7.6c-0.2,0.7-0.2,1.3-0.2,2.1c0.1,0.5,0.2,0.9,0.3,1.4
					c0.1,0.9,0.1,1.9,0.2,2.7c0.1,1,0.2,2,0.2,2.9c0.5,5.3,1.6,8.4,3.6,10.1c1.5,1.2,3.7,1.9,6.6,1.9c0.9,0,1.9-0.1,3-0.2
					c4.1-0.4,6.5-0.8,7.8-1.2c2.4-0.8,3.8-3,3.6-5.6c-0.3-3-2.3-4.8-5.1-4.8c-0.2,0-0.4,0-0.6,0c-0.5,0.1-0.9,0.2-1.6,0.3
					c-0.3,0.1-0.4,0.1-0.5,0.2c-0.8,0.1-1.9,0.2-3.4,0.4c-1.4,0.2-2.4,0.3-3.1,0.4c-0.1-0.5-0.2-1.3-0.3-2.3c-0.1-0.6-0.1-1.2-0.2-2
					l9.4-1.9h0.1h0.1c2.7-0.6,4.2-2.9,4-5.7c-0.2-1.5-0.8-2.7-1.8-3.6c-0.9-0.8-2.1-1.2-3.3-1.2c-0.2,0-0.3,0-0.5,0
					c-0.5,0.1-1.4,0.2-4.5,0.9l-3.8,0.8c-0.1-1.2-0.2-2.4-0.2-3.4c0.2-0.1,0.5-0.2,0.8-0.2c0.9-0.2,1.8-0.4,2.6-0.5
					c0.4-0.1,0.9-0.1,1.3-0.1c1.1,0,2.3,0.2,3.5,0.4c0.4,0.1,0.8,0.2,1.2,0.2c1.7,0,3.2-0.9,4.1-2.3c0.6-1.1,0.9-2.3,0.8-3.5
					c-0.2-2.2-1.6-3.9-3.6-4.6C144.4,79.1,142.7,78.8,140.5,78.8L140.5,78.8L140.5,78.8z"/>
			</g>
			<g>
				<path class="st5" d="M154.2,114.2c0.7-0.1,1.6-0.5,2-2c0.2-2.4,0.4-4.3,0.4-5.5l1.2-10.6l0.1-1.3c1.2,4.4,2.6,8.6,4,12.4
					l0.7,2.1c0.3,0.9,0.6,1.6,0.9,2.1c0.5,0.9,1.2,1.4,2.1,1.3c1-0.1,1.7-0.8,2.2-2c0.4-1,0.7-2.3,1-3.8l0.7-3.8l2-10.4
					c1.5,6,2.6,10.1,3.2,11.9l0.9,3.4c0.5,1.5,0.9,2.5,1.3,3.2c0.5,0.8,1.2,1.2,2,1.1c0.6-0.1,1.1-0.3,1.5-0.9
					c0.4-0.5,0.6-1.1,0.5-1.8c-0.1-0.5-0.4-1.6-1-3.4l-1.2-3.3c-1.4-4.1-2.8-9-4.1-14.9c-0.5-2.3-0.9-3.9-1.2-4.6
					c-0.8-2.3-1.8-3.4-3-3.3c-0.9,0.1-1.6,0.7-2.1,1.9c-0.3,0.8-0.5,1.8-0.5,3l-0.2,2.9C167,93,166.1,98,165,102.8
					c-1.6-4.4-2.8-8.6-3.8-12.4c-0.9-3.6-1.6-5.9-2.2-7.1c-0.7-1.3-1.6-1.6-2.3-1.5c-0.9,0.1-1.5,0.6-2,1.6c-0.5,1-0.9,3-1.1,6
					l-0.4,6.2l-1.2,8.1c-0.5,3.3-0.6,6.1-0.5,8.3c0.1,0.6,0.3,1.2,0.7,1.6C152.9,114,153.5,114.2,154.2,114.2z"/>
				<path class="st6" d="M170.8,80.1c1.2,0,2.1,1.1,2.9,3.3c0.2,0.8,0.6,2.3,1.2,4.6c1.2,5.8,2.7,10.8,4.1,14.9l1.2,3.3
					c0.6,1.8,0.9,2.9,1,3.4c0.1,0.7-0.1,1.2-0.5,1.8c-0.4,0.5-0.9,0.8-1.5,0.9c-0.1,0-0.2,0-0.2,0c-0.7,0-1.3-0.4-1.9-1.1
					c-0.5-0.6-0.9-1.6-1.3-3.2l-0.9-3.4c-0.6-1.9-1.7-5.9-3.2-11.9l-2,10.4l-0.7,3.8c-0.3,1.6-0.6,2.8-1,3.8c-0.5,1.2-1.2,1.9-2.2,2
					c-0.1,0-0.2,0-0.2,0c-0.8,0-1.4-0.5-2-1.3c-0.3-0.5-0.6-1.2-0.9-2.1l-0.7-2.1c-1.4-3.8-2.7-8-4-12.4l-0.1,1.3l-1.2,10.6
					c0,1.2-0.1,3-0.4,5.5c-0.4,1.6-1.2,2-2,2c-0.1,0-0.2,0-0.2,0c-0.6,0-1.1-0.2-1.6-0.7c-0.4-0.4-0.6-1-0.7-1.6
					c-0.2-2.2-0.1-5,0.5-8.3l1.2-8.1l0.4-6.2c0.2-3,0.6-5,1.1-6c0.5-0.9,1.1-1.4,2-1.6c0.1,0,0.2,0,0.2,0c0.6,0,1.4,0.3,2,1.5
					s1.3,3.4,2.2,7.1c0.9,3.8,2.2,8,3.8,12.4c1.1-4.8,2-9.8,2.7-14.8l0.2-2.9c0.1-1.2,0.3-2.2,0.5-3c0.4-1.2,1.1-1.8,2.1-1.9
					C170.7,80.1,170.7,80.1,170.8,80.1 M170.8,77.2L170.8,77.2c-0.2,0-0.3,0-0.5,0c-2.1,0.2-3.7,1.6-4.5,3.8c-0.4,1-0.6,2.3-0.7,3.7
					l-0.2,2.8c-0.2,1.1-0.3,2.1-0.5,3.1c-0.1-0.4-0.2-0.7-0.2-1.1c-0.9-3.9-1.7-6.3-2.4-7.7c-1-2-2.7-3.1-4.6-3.1
					c-0.2,0-0.3,0-0.5,0c-1.9,0.2-3.4,1.2-4.3,3.1c-0.7,1.4-1.2,3.6-1.4,7.1l0,0l0,0l-0.4,6.2l-1.2,8c-0.5,3.5-0.7,6.6-0.5,9
					c0.2,1.2,0.6,2.4,1.4,3.4c0.9,1.1,2.3,1.6,3.7,1.6c0.2,0,0.3,0,0.5,0c2.3-0.2,3.9-1.8,4.5-4.3l0.1-0.2v-0.2
					c0.2-1.4,0.2-2.6,0.3-3.6l0.5,1.3c0.4,1.1,0.8,2,1.2,2.7c1.4,2.3,3.4,2.7,4.4,2.7c0.2,0,0.3,0,0.5,0c2.1-0.2,3.7-1.6,4.6-3.8
					c0.5-1.2,0.8-2.7,1.1-4.4l0.3-1.8l0.9,3c0.5,1.9,1.1,3.1,1.7,4c1.1,1.6,2.6,2.4,4.2,2.4c0.2,0,0.3,0,0.5,0
					c1.3-0.2,2.6-0.8,3.5-1.9s1.3-2.4,1.2-3.9c-0.1-0.6-0.3-1.6-1.2-4.1l-1.2-3.3c-1.4-3.9-2.7-8.8-3.9-14.5c-0.7-3.3-1-4.4-1.2-5
					C175.2,78.9,173.3,77.2,170.8,77.2L170.8,77.2z"/>
			</g>
			<g>
				<path class="st5" d="M202.2,107.5c-0.2-1.6-1-2.3-2.5-2.2c-0.2,0-0.6,0.1-1.1,0.2c-0.4,0.2-0.8,0.2-0.9,0.2
					c-0.8,0.1-1.9,0.2-3.3,0.4c-1.5,0.2-2.6,0.3-3.3,0.4c-2,0.2-2.4-0.1-2.5-0.2c-0.2-0.2-0.6-1.2-0.9-4.8c-0.1-0.7-0.2-1.5-0.2-2.3
					c-0.1-0.7-0.1-1.5-0.2-2.3l11.9-2.3c0.9-0.2,1.9-0.9,1.7-2.6c-0.1-0.7-0.3-1.2-0.8-1.7c-0.5-0.4-1-0.5-1.6-0.5
					c-0.5,0.1-1.9,0.3-4.1,0.8l-7.2,1.5c-0.1-3-0.2-5.4-0.4-7.1c-0.1-0.5-0.2-1-0.3-1.7c1.2-0.5,2.3-0.9,3.2-1.1
					c1.1-0.3,2.1-0.5,3-0.6c1.8-0.2,3.7-0.1,5.7,0.4c1,0.2,1.7-0.2,2.2-0.9c0.3-0.5,0.5-1.1,0.4-1.7c-0.1-1.1-0.7-1.8-1.6-2.1
					c-1.8-0.6-4.2-0.8-7.1-0.5c-1.1,0.1-2.3,0.3-3.6,0.7c-1.2,0.3-2.4,0.7-3.7,1.2c-0.4-0.3-0.9-0.5-1.4-0.4c-1,0.1-2.1,0.7-1.9,3
					c0.1,0.5,0.2,1.2,0.4,2.2c0.2,0.9,0.3,1.6,0.4,2c0.2,1.8,0.3,4.5,0.5,8.3c-0.2,0.4-0.2,0.9-0.2,1.3c0,0.4,0.2,0.7,0.3,1
					c0.1,1.1,0.1,2.2,0.2,3.1c0.1,1,0.2,2,0.2,2.7c0.4,4.4,1.2,7,2.6,8.2c1.2,1.1,3.7,1.4,7.5,1c3.7-0.4,6.1-0.7,7.2-1.1
					C201.8,109.6,202.3,108.7,202.2,107.5z"/>
				<path class="st6" d="M194.8,76.5c1.8,0,3.3,0.2,4.5,0.6c0.9,0.3,1.6,1.1,1.6,2.1c0.1,0.6-0.1,1.2-0.4,1.7c-0.4,0.6-0.9,1-1.6,1
					c-0.2,0-0.4,0-0.5-0.1c-1.4-0.3-2.8-0.5-4.1-0.5c-0.5,0-1.1,0-1.6,0.1c-0.9,0.1-2,0.3-3,0.6c-1,0.3-2.1,0.6-3.2,1.1
					c0.2,0.7,0.2,1.3,0.3,1.7c0.2,1.7,0.3,4.1,0.4,7.1l7.2-1.5c2.3-0.5,3.7-0.8,4.1-0.8c0.1,0,0.2,0,0.2,0c0.5,0,1,0.2,1.4,0.5
					c0.5,0.4,0.7,0.9,0.8,1.7c0.2,1.8-0.9,2.4-1.7,2.6l-11.9,2.3c0,0.8,0.1,1.6,0.2,2.3c0.1,0.9,0.1,1.6,0.2,2.3
					c0.4,3.7,0.8,4.6,0.9,4.8c0,0.1,0.2,0.2,1.2,0.2c0.3,0,0.7,0,1.2-0.1c0.7-0.1,1.8-0.2,3.3-0.4c1.5-0.2,2.6-0.3,3.3-0.4
					c0.2,0,0.5-0.1,0.9-0.2c0.5-0.2,0.9-0.2,1.1-0.2c0.1,0,0.2,0,0.3,0c1.2,0,2,0.8,2.2,2.3c0.2,1.3-0.4,2.2-1.6,2.6
					c-1.1,0.4-3.5,0.7-7.2,1.1c-1,0.1-1.9,0.2-2.7,0.2c-2.3,0-3.8-0.4-4.8-1.2c-1.3-1.2-2.2-3.8-2.6-8.2c-0.1-0.9-0.2-1.8-0.2-2.7
					c-0.1-0.9-0.1-2-0.2-3.1c-0.2-0.3-0.2-0.6-0.3-1c-0.1-0.5,0-0.9,0.2-1.3c-0.2-3.7-0.3-6.6-0.5-8.3c-0.1-0.5-0.2-1.2-0.4-2
					c-0.2-0.9-0.3-1.6-0.4-2.2c-0.2-2.3,0.9-2.9,1.9-3c0.1,0,0.2,0,0.2,0c0.5,0,0.9,0.2,1.2,0.4c1.3-0.5,2.6-0.9,3.7-1.2
					c1.2-0.3,2.4-0.5,3.6-0.7C193.1,76.5,194,76.5,194.8,76.5 M194.8,73.5c-0.9,0-1.9,0.1-2.9,0.2c-1.2,0.2-2.7,0.4-4.1,0.8
					c-0.9,0.2-1.9,0.5-2.9,0.9c-0.4-0.1-0.9-0.2-1.2-0.2c-0.2,0-0.3,0-0.5,0c-3.5,0.3-4.8,3.4-4.5,6.1c0.1,0.6,0.2,1.5,0.5,2.5
					c0.2,1,0.3,1.5,0.3,1.7c0.2,1.6,0.3,4.1,0.4,7.6c-0.2,0.7-0.2,1.3-0.2,2.1c0.1,0.5,0.2,0.9,0.3,1.4c0.1,0.9,0.1,1.8,0.2,2.7
					c0.1,1,0.2,2,0.2,2.9c0.5,5.3,1.6,8.4,3.6,10.1c1.5,1.2,3.7,1.9,6.6,1.9c0.9,0,1.9-0.1,3-0.2c4.1-0.4,6.5-0.8,7.8-1.2
					c2.4-0.8,3.8-3,3.6-5.6c-0.3-3-2.3-4.8-5.1-4.8c-0.2,0-0.4,0-0.6,0c-0.5,0.1-0.9,0.2-1.6,0.3c-0.3,0.1-0.4,0.1-0.5,0.2
					c-0.8,0.1-1.9,0.2-3.4,0.4c-1.4,0.2-2.4,0.3-3.1,0.4c-0.1-0.5-0.2-1.3-0.3-2.3c-0.1-0.6-0.1-1.2-0.2-2l9.4-1.9h0.1h0.1
					c2.7-0.6,4.2-2.9,4-5.7c-0.2-1.5-0.8-2.7-1.8-3.6c-0.9-0.8-2.1-1.2-3.3-1.2l0,0c-0.2,0-0.3,0-0.5,0c-0.5,0.1-1.4,0.2-4.5,0.9
					l-3.8,0.8c-0.1-1.2-0.2-2.4-0.2-3.4c0.2-0.1,0.5-0.2,0.8-0.2c0.9-0.2,1.8-0.4,2.6-0.5c0.4-0.1,0.9-0.1,1.3-0.1
					c1.1,0,2.3,0.2,3.5,0.4c0.4,0.1,0.8,0.2,1.2,0.2c1.7,0,3.1-0.9,4.1-2.3c0.6-1.1,0.9-2.3,0.8-3.5c-0.2-2.2-1.6-3.9-3.6-4.6
					C198.7,73.8,196.9,73.5,194.8,73.5L194.8,73.5z"/>
			</g>
			<g>
				<path class="st5" d="M100.2,135.4L100.2,135.4c-1.8-0.6-4.2-0.8-7.1-0.5c-1.1,0.1-2.3,0.3-3.6,0.7c-1.2,0.3-2.4,0.7-3.7,1.2
					c-0.4-0.3-0.9-0.5-1.4-0.4c-1,0.1-2.1,0.7-1.9,3c0.1,0.5,0.2,1.2,0.4,2.2c0.2,0.9,0.3,1.6,0.4,2c0.2,1.8,0.3,4.6,0.5,8.3
					c-0.2,0.4-0.2,0.9-0.2,1.3c0,0.4,0.2,0.7,0.3,1c0.1,1.1,0.1,2.2,0.2,3.1c0.1,1,0.2,2,0.2,2.7c0.4,4.4,1.2,7,2.6,8.2
					c1.2,1.1,3.7,1.4,7.5,1c3.7-0.4,6.1-0.7,7.2-1.1c1.2-0.4,1.7-1.2,1.6-2.6c-0.2-1.6-1-2.3-2.5-2.2c-0.2,0-0.6,0.1-1.1,0.2
					c-0.5,0.2-0.8,0.2-0.9,0.2c-0.8,0.1-1.9,0.2-3.3,0.4c-1.5,0.2-2.6,0.3-3.3,0.4c-2,0.2-2.4-0.1-2.5-0.2c-0.2-0.2-0.6-1.2-0.9-4.8
					c-0.1-0.7-0.2-1.5-0.2-2.3c-0.1-0.7-0.1-1.5-0.2-2.3l11.9-2.3c0.9-0.2,1.9-0.9,1.7-2.6c-0.1-0.7-0.3-1.2-0.8-1.7
					c-0.5-0.4-1-0.5-1.6-0.5c-0.5,0.1-1.9,0.3-4.1,0.8l-7.2,1.5c-0.1-3-0.2-5.4-0.4-7.1c-0.1-0.5-0.2-1-0.3-1.7
					c1.2-0.5,2.3-0.9,3.2-1.1c1.1-0.3,2.1-0.5,3-0.6c1.8-0.2,3.7-0.1,5.7,0.4c1,0.2,1.7-0.2,2.2-0.9c0.3-0.5,0.5-1.1,0.4-1.7
					C101.8,136.5,101.2,135.7,100.2,135.4z"/>
				<path class="st6" d="M95.7,134.8c1.8,0,3.3,0.2,4.5,0.6l0,0c0.9,0.3,1.6,1.1,1.6,2.1c0.1,0.6-0.1,1.2-0.4,1.7
					c-0.4,0.6-0.9,1-1.6,1c-0.2,0-0.4,0-0.5-0.1c-1.4-0.3-2.8-0.5-4.1-0.5c-0.5,0-1.1,0-1.6,0.1c-0.9,0.1-2,0.3-3,0.6
					c-1,0.3-2.1,0.6-3.2,1.1c0.2,0.7,0.2,1.3,0.3,1.7c0.2,1.7,0.3,4.1,0.4,7.1l7.2-1.5c2.3-0.5,3.7-0.8,4.1-0.8c0.1,0,0.2,0,0.2,0
					c0.5,0,1,0.2,1.4,0.5c0.5,0.4,0.7,0.9,0.8,1.7c0.2,1.8-0.9,2.4-1.7,2.6l-11.9,2.3c0,0.8,0.1,1.6,0.2,2.3
					c0.1,0.9,0.1,1.6,0.2,2.3c0.4,3.7,0.8,4.6,0.9,4.8c0,0.1,0.2,0.2,1.2,0.2c0.3,0,0.7,0,1.2-0.1c0.7-0.1,1.8-0.2,3.3-0.4
					c1.5-0.2,2.6-0.3,3.3-0.4c0.2,0,0.4-0.1,0.9-0.2c0.5-0.2,0.9-0.2,1.1-0.2c0.1,0,0.2,0,0.3,0c1.2,0,2,0.8,2.2,2.3
					c0.2,1.3-0.4,2.2-1.6,2.6c-1.1,0.4-3.5,0.7-7.2,1.1c-1,0.1-1.9,0.2-2.7,0.2c-2.3,0-3.8-0.4-4.8-1.2c-1.3-1.2-2.2-3.8-2.6-8.2
					c-0.1-0.9-0.2-1.8-0.2-2.7s-0.1-2-0.2-3.1c-0.2-0.3-0.2-0.6-0.3-1c-0.1-0.5,0-0.9,0.2-1.3c-0.2-3.7-0.3-6.6-0.5-8.3
					c-0.1-0.5-0.2-1.2-0.4-2c-0.2-0.9-0.3-1.6-0.4-2.2c-0.2-2.3,0.9-2.9,1.9-3c0.1,0,0.2,0,0.2,0c0.5,0,0.9,0.2,1.2,0.4
					c1.3-0.5,2.6-0.9,3.7-1.2c1.2-0.3,2.4-0.5,3.6-0.7C94.1,134.8,94.9,134.8,95.7,134.8 M95.7,131.9c-0.9,0-1.9,0.1-2.9,0.2
					c-1.2,0.2-2.7,0.4-4.1,0.8c-0.9,0.2-1.9,0.5-2.9,0.9c-0.4-0.1-0.9-0.2-1.2-0.2l0,0c-0.2,0-0.3,0-0.5,0c-3.5,0.3-4.8,3.4-4.5,6.1
					c0.1,0.6,0.2,1.5,0.5,2.5c0.2,1,0.3,1.5,0.3,1.7c0.2,1.6,0.3,4.1,0.4,7.6c-0.2,0.7-0.2,1.3-0.2,2.1c0.1,0.5,0.2,0.9,0.3,1.4
					c0.1,0.9,0.1,1.9,0.2,2.7c0.1,1,0.2,2,0.2,2.9c0.5,5.3,1.6,8.4,3.6,10.1c1.5,1.2,3.7,1.9,6.6,1.9c0.9,0,1.9-0.1,3-0.2
					c4.1-0.4,6.5-0.8,7.8-1.2c2.4-0.8,3.8-3,3.6-5.6c-0.3-3-2.3-4.8-5.1-4.8c-0.2,0-0.4,0-0.6,0c-0.5,0.1-0.9,0.2-1.6,0.3
					c-0.3,0.1-0.4,0.1-0.5,0.1c-0.8,0.1-1.9,0.2-3.4,0.4c-1.4,0.2-2.4,0.3-3.1,0.4c-0.1-0.5-0.2-1.3-0.3-2.3c-0.1-0.6-0.1-1.2-0.2-2
					l9.4-1.9h0.1h0.1c2.7-0.6,4.2-2.9,4-5.7c-0.2-1.5-0.8-2.7-1.8-3.6c-0.9-0.8-2.1-1.2-3.3-1.2c-0.2,0-0.3,0-0.5,0
					c-0.5,0.1-1.4,0.2-4.5,0.9l-3.8,0.8c-0.1-1.2-0.2-2.4-0.2-3.4c0.2-0.1,0.5-0.2,0.8-0.2c0.9-0.2,1.8-0.4,2.6-0.5
					c0.4-0.1,0.9-0.1,1.3-0.1c1.1,0,2.3,0.2,3.5,0.4c0.4,0.1,0.8,0.2,1.2,0.2c1.7,0,3.2-0.9,4.1-2.3c0.6-1.1,0.9-2.3,0.8-3.5
					c-0.2-2.2-1.6-3.9-3.6-4.6l-0.2-0.1l0,0C99.5,132.1,97.7,131.9,95.7,131.9L95.7,131.9z"/>
			</g>
			<g>
				<path class="st5" d="M114.3,136.8L114.3,136.8c-0.2-0.1-0.9-0.3-3.2-1.3c-2.3-1-2.9-1.1-3.1-1.1c-0.6,0.1-1.2,0.5-1.7,1.2
					c-0.5,0.7-0.7,1.4-0.6,2c0.2,1.6,0.4,3.8,0.8,6.9c0.3,3,0.6,5.3,0.8,6.9c0.2,1.4,0.3,3.4,0.5,6.2s0.3,4.8,0.5,6.2
					c0.1,0.6,0.3,1.2,0.8,1.6s1,0.6,1.6,0.5l0,0c0.8,0.5,1.8,0.9,3.1,1.1c1.2,0.2,2.2,0.2,3.1,0.2c3.5-0.3,6.1-1.3,7.9-3
					c1.6-1.4,2.7-3.3,3.5-5.5c0.8-2.2,1-4.4,0.8-6.8c-0.4-3.8-2.1-7.2-5.2-10.1C121,139.5,117.8,137.8,114.3,136.8z M110.4,140.5
					c4.1,1.6,6.9,2.7,8,3.4c3.7,2.2,5.8,5.1,6.2,8.7c0.2,1.5,0,3-0.5,4.5c-0.5,1.5-1.2,2.7-2.3,3.6c-1.1,0.9-2.9,1.6-5.5,1.9
					c-1.5,0.2-2.7-0.1-3.7-0.7c-0.1-0.1-0.2-0.1-0.2-0.2l-0.8-10.5L110.4,140.5z"/>
				<path class="st6" d="M108.1,134.4c0.3,0,0.9,0.2,3,1.1c2.3,1,3,1.2,3.2,1.3l0,0c3.5,0.9,6.6,2.7,9.2,5.1
					c3.1,2.9,4.9,6.3,5.2,10.1c0.2,2.3-0.1,4.5-0.8,6.8c-0.8,2.2-2,4.1-3.5,5.5c-1.7,1.6-4.4,2.6-7.9,3c-0.2,0-0.5,0-0.9,0
					c-0.7,0-1.4-0.1-2.3-0.2c-1.3-0.2-2.4-0.5-3.1-1.1l0,0c-0.1,0-0.2,0-0.2,0c-0.5,0-1-0.2-1.4-0.6c-0.5-0.4-0.7-1-0.8-1.6
					c-0.2-1.4-0.3-3.5-0.5-6.2c-0.2-2.7-0.3-4.8-0.5-6.2c-0.2-1.5-0.4-3.8-0.8-6.9c-0.3-3-0.6-5.3-0.8-6.9c-0.1-0.6,0.2-1.3,0.6-2
					C106.8,134.9,107.4,134.5,108.1,134.4C108,134.4,108,134.4,108.1,134.4 M115.4,162.5c0.2,0,0.5,0,0.8-0.1
					c2.6-0.2,4.4-0.9,5.5-1.9c1-0.9,1.8-2.1,2.3-3.6c0.5-1.5,0.7-3,0.5-4.5c-0.3-3.5-2.4-6.5-6.2-8.7c-1.2-0.7-3.9-1.9-8-3.4
					l1.2,10.6l0.8,10.5c0.1,0,0.2,0.1,0.2,0.2C113.3,162.2,114.3,162.5,115.4,162.5 M108.1,131.5c-0.2,0-0.2,0-0.4,0
					c-1,0.1-2.6,0.6-3.8,2.4c-0.9,1.3-1.2,2.7-1.2,4c0.2,1.6,0.4,3.8,0.8,6.9c0.3,3,0.6,5.3,0.7,6.8c0.2,1.3,0.2,3.4,0.4,6.1
					c0.2,2.8,0.3,4.9,0.5,6.3c0.2,1.3,0.7,2.6,1.6,3.4c0.9,0.8,1.8,1.2,2.9,1.3c0.9,0.5,2.1,0.8,3.4,1c0.9,0.2,1.9,0.2,2.7,0.2
					c0.4,0,0.8,0,1.1-0.1c4.1-0.4,7.3-1.6,9.6-3.7c1.9-1.8,3.4-4,4.3-6.6c0.9-2.6,1.2-5.3,0.9-8c-0.5-4.5-2.5-8.6-6.2-11.9
					c-3-2.7-6.5-4.7-10.5-5.8c-0.2-0.1-0.7-0.2-2.9-1.2C109.7,131.7,108.9,131.5,108.1,131.5L108.1,131.5z M115,159.6l-0.6-8.7v-0.1
					v-0.1l-0.6-5.9c1.9,0.8,2.7,1.2,3.1,1.5c3,1.7,4.4,3.8,4.8,6.4c0.1,1.1,0,2.2-0.4,3.3c-0.3,1-0.9,1.8-1.5,2.4
					c-0.2,0.2-1.1,0.8-3.7,1.1c-0.2,0-0.4,0-0.5,0C115.3,159.6,115.1,159.6,115,159.6L115,159.6z"/>
			</g>
			<g>
				<path class="st5" d="M143,137.7c1.2,0.1,2.1,0.1,2.9,0c0.5-0.1,1-0.3,1.4-0.7c0.5-0.5,0.6-1.1,0.5-1.9c-0.2-1.8-1.2-2.3-2.1-2.3
					c-3.6-0.2-6.6-0.2-8.9,0c-2.6,0.2-4.4,0.5-5.4,0.7c-0.9,0.2-2,0.8-1.8,2.6c0.1,0.7,0.3,1.2,0.8,1.6c0.5,0.4,1,0.6,1.6,0.5l0,0
					l4.1-0.5c0.1,4.4,0.3,8,0.6,11c0.1,0.9,0.2,2,0.5,3.3c0.2,1.3,0.3,2.4,0.5,3.3c0.2,1.2,0.2,2.3,0.2,3.3
					c-1.6,0.4-2.7,0.6-3.4,0.7c-0.6,0.1-1.1,0.4-1.5,0.9c-0.3,0.5-0.5,1.1-0.5,1.7c0.1,0.6,0.3,1.2,0.8,1.6c0.5,0.5,1,0.6,1.6,0.5
					c0.8-0.1,2-0.3,3.5-0.7c1.5-0.4,2.7-0.6,3.4-0.7c0.6-0.1,1.6-0.2,3-0.3c1.3-0.2,2.3-0.2,3-0.3c0.6-0.1,1.1-0.3,1.5-0.9
					c0.4-0.5,0.5-1.1,0.5-1.8c-0.1-0.6-0.3-1.2-0.8-1.6s-1-0.6-1.6-0.5l-5.1,0.5c0-0.9-0.1-1.9-0.2-3c-0.1-0.9-0.2-2-0.4-3.4
					c-0.2-1.3-0.3-2.5-0.4-3.4c-0.3-3.3-0.5-6.9-0.6-10.5L143,137.7z"/>
				<path class="st6" d="M140.9,132.7c1.5,0,3.1,0.1,4.9,0.2c0.9,0.1,2,0.5,2.1,2.3c0.1,0.7-0.1,1.3-0.5,1.9
					c-0.4,0.4-0.9,0.6-1.4,0.7c-0.4,0.1-0.9,0.1-1.5,0.1c-0.5,0-0.9,0-1.5-0.1l-2.4-0.2c0.1,3.7,0.3,7.2,0.6,10.5
					c0.1,0.9,0.2,2,0.4,3.4c0.2,1.3,0.3,2.5,0.4,3.4c0.1,1.1,0.2,2,0.2,3l5.1-0.5c0.1,0,0.2,0,0.2,0c0.5,0,1,0.2,1.4,0.5
					c0.5,0.4,0.7,0.9,0.8,1.6c0.1,0.7-0.1,1.2-0.5,1.8c-0.4,0.5-0.9,0.8-1.5,0.9c-0.6,0.1-1.6,0.2-3,0.3c-1.3,0.2-2.3,0.2-3,0.3
					c-0.8,0.1-1.9,0.3-3.4,0.7c-1.6,0.4-2.7,0.6-3.5,0.7c-0.1,0-0.2,0-0.2,0c-0.5,0-1-0.2-1.4-0.5c-0.5-0.4-0.7-0.9-0.8-1.6
					c-0.1-0.6,0.1-1.2,0.5-1.7c0.4-0.5,0.9-0.9,1.5-0.9c0.7-0.1,1.8-0.3,3.4-0.7c0-1-0.1-2.1-0.2-3.3c-0.1-0.9-0.2-2-0.5-3.3
					c-0.2-1.3-0.3-2.4-0.5-3.3c-0.3-2.9-0.5-6.6-0.6-11l-4.1,0.5l0,0c-0.1,0-0.2,0-0.2,0c-0.5,0-1-0.2-1.4-0.5
					c-0.5-0.4-0.7-0.9-0.8-1.6c-0.2-1.8,0.9-2.4,1.8-2.6c0.9-0.2,2.7-0.4,5.4-0.7C138,132.7,139.3,132.7,140.9,132.7 M140.9,129.8
					L140.9,129.8c-1.6,0-3,0.1-4.3,0.2c-2.7,0.2-4.6,0.5-5.7,0.7c-2.7,0.5-4.4,2.8-4.1,5.7c0.2,1.4,0.7,2.7,1.7,3.5
					c0.9,0.9,2.1,1.3,3.4,1.3c0.2,0,0.3,0,0.5,0h0.1h0.1l0.9-0.2c0.2,3,0.3,5.7,0.5,8c0.1,0.9,0.2,2.1,0.5,3.4
					c0.2,1.2,0.3,2.3,0.4,3.1c0,0.2,0.1,0.5,0.1,0.7c-0.3,0.1-0.5,0.1-0.6,0.1c-1.5,0.2-2.7,0.9-3.6,2.1c-0.8,1.1-1.1,2.3-0.9,3.7
					c0.2,1.3,0.7,2.6,1.6,3.4c0.9,0.9,2.1,1.4,3.4,1.4c0.2,0,0.3,0,0.5,0c0.9-0.1,2.3-0.4,4-0.8c1.8-0.5,2.6-0.5,3-0.6
					c0.7-0.1,1.7-0.2,3-0.3c1.3-0.2,2.3-0.2,2.9-0.3c1.5-0.2,2.7-0.9,3.6-2.1c0.8-1.1,1.1-2.3,0.9-3.7c-0.2-1.3-0.7-2.6-1.6-3.4
					c-0.9-0.9-2.1-1.4-3.4-1.4l0,0c-0.2,0-0.3,0-0.5,0l0,0l0,0l-2.1,0.2l0,0c-0.1-0.9-0.2-2.1-0.4-3.5c-0.2-1.3-0.3-2.4-0.4-3.3
					c-0.2-2.3-0.4-4.7-0.5-7.2c0.3,0,0.6,0,0.9,0c0.6,0,1.2,0,1.7-0.1c1.2-0.2,2.3-0.7,3.3-1.6l0,0l0,0c1-1.1,1.4-2.5,1.2-4.1
					c-0.3-2.9-2.1-4.8-4.8-4.9C144.1,129.8,142.3,129.8,140.9,129.8L140.9,129.8z"/>
			</g>
			<g>
				<path class="st5" d="M173.8,130.5c-0.5-0.5-1-0.6-1.6-0.5c-0.9,0.1-2.3,0.2-4,0.2c-1.8,0-3.1,0.1-4.1,0.2
					c-0.7,0.1-1.8,0.2-3.2,0.4c-1.4,0.2-2.5,0.3-3.2,0.4c-0.7,0.1-1.6,0.1-2.8,0c-1.5-0.1-2.4-0.1-2.9-0.1c-0.7,0-1.2,0.3-1.6,0.9
					c-0.3,0.5-0.5,1.1-0.4,1.7c0.1,1.2,0.8,2,2,2.2c1.6,0.3,3.7,0.3,6.2,0.1l1.2-0.2c0.2,1.6,0.6,4.1,1.2,7.5c0.6,3.4,1,6,1.2,7.8
					c0.1,0.7,0.2,1.6,0.4,2.9c0.2,1.2,0.3,2.3,0.4,2.9c0,0.2,0,0.5,0,0.9c0,0.4,0,0.7,0,0.9c0.1,0.7,0.4,1.2,0.9,1.6
					c0.5,0.4,1,0.5,1.6,0.5c0.6-0.1,1.4-0.4,1.7-1.7c0.2-0.7,0.2-1.6,0.2-2.5c-0.1-0.5-0.2-1.2-0.3-2.1c-0.2-0.9-0.3-1.6-0.3-2
					c-0.2-2.1-0.6-5.1-1.2-8.8c-0.6-3.7-1-6.6-1.2-8.3l0.9-0.1c0.9-0.1,2.3-0.2,4-0.2c1.8,0,3.2-0.1,4.1-0.2
					c0.6-0.1,1.1-0.4,1.5-0.9c0.4-0.5,0.5-1.1,0.5-1.7C174.5,131.5,174.2,130.9,173.8,130.5z"/>
				<path class="st6" d="M172.4,129.9c0.5,0,1,0.2,1.4,0.5c0.5,0.4,0.7,1,0.8,1.6c0.1,0.6-0.1,1.2-0.5,1.7c-0.4,0.5-0.9,0.8-1.5,0.9
					c-0.9,0.1-2.3,0.2-4.1,0.2c-1.7,0-3.1,0.1-4,0.2l-0.9,0.1c0.2,1.8,0.6,4.6,1.2,8.3s1,6.7,1.2,8.8c0.1,0.5,0.2,1.2,0.3,2
					c0.2,0.9,0.3,1.6,0.3,2.1c0.1,0.9,0,1.8-0.2,2.5c-0.4,1.3-1.2,1.6-1.7,1.7c-0.1,0-0.2,0-0.2,0c-0.5,0-0.9-0.2-1.4-0.5
					c-0.5-0.4-0.8-0.9-0.9-1.6c0-0.2,0-0.5,0-0.9c0-0.4,0-0.6,0-0.9c-0.1-0.6-0.2-1.6-0.4-2.9c-0.2-1.2-0.3-2.3-0.4-2.9
					c-0.2-1.9-0.5-4.4-1.2-7.8c-0.6-3.4-1-5.9-1.2-7.5l-1.2,0.2c-1.2,0.2-2.3,0.2-3.4,0.2c-1.1,0-2.1-0.1-2.9-0.2
					c-1.2-0.2-1.8-0.9-2-2.2c-0.1-0.6,0.1-1.2,0.4-1.7c0.4-0.6,0.9-0.9,1.6-0.9c0.1,0,0.2,0,0.2,0c0.5,0,1.3,0,2.7,0.1
					c0.5,0,0.9,0,1.2,0c0.6,0,1.2,0,1.6-0.1c0.7-0.1,1.8-0.2,3.2-0.4c1.4-0.2,2.5-0.3,3.2-0.4c0.9-0.1,2.3-0.2,4.1-0.2
					c1.8,0,3.1-0.1,4-0.2C172.2,129.9,172.3,129.9,172.4,129.9 M172.4,127c-0.2,0-0.3,0-0.5,0c-0.5,0.1-1.6,0.2-3.7,0.2
					c-1.9,0-3.3,0.1-4.3,0.2c-0.7,0.1-1.8,0.2-3.3,0.4c-1.4,0.2-2.4,0.3-3.1,0.3c-0.3,0-0.8,0.1-1.3,0.1c-0.3,0-0.7,0-1.2,0
					c-1.2-0.1-2.2-0.1-2.7-0.1c-0.2,0-0.2,0-0.3,0c-1.6,0-3.1,0.9-4.1,2.3c-0.6,1.1-0.9,2.3-0.8,3.5c0.2,2.5,1.9,4.3,4.3,4.8
					c1,0.2,2.1,0.3,3.4,0.3c0.6,0,1.3,0,2-0.1c0.2,1.3,0.5,3,0.8,4.8c0.5,3.3,0.9,5.9,1.2,7.6c0.1,0.7,0.2,1.8,0.4,3.1
					c0.2,1.5,0.3,2.3,0.4,2.7l0,0c0,0,0,0.2,0,0.4c0,0.5,0,1,0,1.4c0.2,1.5,0.8,2.7,2,3.6c0.9,0.8,2,1.2,3.2,1.2c0.2,0,0.3,0,0.5,0
					c2-0.2,3.7-1.6,4.3-3.8c0.3-1.1,0.4-2.3,0.3-3.6c-0.1-0.5-0.2-1.3-0.4-2.3c-0.2-1.1-0.2-1.6-0.3-1.8c-0.2-2.2-0.6-5.2-1.2-9
					c-0.3-2-0.6-3.7-0.9-5.1c0.5,0,1,0,1.6,0c2,0,3.4-0.1,4.3-0.2c1.5-0.2,2.7-0.9,3.6-2c0.8-1.1,1.1-2.3,1-3.7
					c-0.2-1.4-0.7-2.6-1.7-3.5C174.9,127.5,173.6,127,172.4,127L172.4,127z"/>
			</g>
			<g>
				<path class="st5" d="M188.3,127.5c-4.1,0.4-7.4,2.9-9.8,7.3c-2.1,4-2.9,8.3-2.4,12.9c0.4,3.8,2,6.9,4.7,9c2.6,2,5.6,2.9,9,2.6
					c4.1-0.4,7.3-2.9,9.5-7.4c1.9-3.9,2.6-8.2,2.2-12.8c-0.5-4.4-1.8-7.6-4-9.5C195.3,127.8,192.3,127.1,188.3,127.5z M195.5,149.3
					c-1.5,3.3-3.5,5-6.2,5.2c-2.3,0.2-4.2-0.3-5.9-1.6c-1.7-1.3-2.7-3.3-3-5.6c-0.3-3.4,0.2-6.7,1.8-9.8c1.6-3.3,3.8-5,6.5-5.3
					c2.7-0.2,4.8,0.2,5.9,1.2c1.2,1.1,2.1,3.1,2.3,6.2C197.4,143.1,196.9,146.3,195.5,149.3L195.5,149.3z"/>
				<path class="st6" d="M190.2,127.3c3,0,5.5,0.8,7.2,2.3c2.3,1.9,3.6,5.1,4,9.5c0.5,4.6-0.3,8.9-2.2,12.8c-2.2,4.5-5.4,7-9.5,7.4
					c-0.5,0.1-0.9,0.1-1.4,0.1c-2.8,0-5.4-0.9-7.6-2.7c-2.7-2.2-4.3-5.2-4.7-9c-0.5-4.6,0.4-9,2.4-12.9c2.3-4.4,5.6-6.9,9.8-7.3
					C189,127.4,189.6,127.3,190.2,127.3 M188.4,154.6c0.3,0,0.6,0,0.9-0.1c2.7-0.2,4.8-2,6.2-5.2l0,0c1.3-3,1.9-6.2,1.5-9.7
					c-0.3-3-1.1-5.1-2.3-6.2c-0.9-0.8-2.4-1.2-4.4-1.2c-0.5,0-1,0-1.6,0.1c-2.7,0.2-4.9,2-6.5,5.3c-1.5,3-2.1,6.3-1.8,9.8
					c0.2,2.4,1.2,4.3,3,5.6C184.9,154,186.5,154.6,188.4,154.6 M190.2,124.5c-0.7,0-1.5,0-2.3,0.1c-3.6,0.3-8.5,2.2-12.1,8.9
					c-2.3,4.5-3.3,9.4-2.8,14.6c0.5,4.6,2.4,8.3,5.8,11c2.7,2.2,5.9,3.3,9.4,3.3c0.5,0,1.1,0,1.6-0.1c3.6-0.3,8.6-2.2,11.9-9
					c2.1-4.4,3-9.2,2.4-14.4c-0.5-5.2-2.2-9-5-11.5C197,125.5,194,124.5,190.2,124.5L190.2,124.5z M188.4,151.7
					c-1.2,0-2.3-0.3-3.1-1c-1.1-0.9-1.6-2-1.8-3.6c-0.3-2.9,0.2-5.6,1.5-8.2c1.7-3.4,3.6-3.6,4.2-3.7c0.5-0.1,0.9-0.1,1.3-0.1
					c1.6,0,2.3,0.4,2.5,0.5c0.2,0.2,1,1.1,1.3,4.2c0.3,3-0.2,5.8-1.2,8.2l-0.1,0.2c-1.3,2.9-2.7,3.4-3.8,3.4
					C188.8,151.7,188.6,151.7,188.4,151.7L188.4,151.7z"/>
			</g>
			<g>
				<path class="st5" d="M225.4,150.9L225.4,150.9c-2-2.1-4.7-4.1-8.2-5.9c1.6-0.8,3-1.8,4-3c1.6-1.8,2.2-3.7,2-5.9
					c-0.4-4.2-3.2-7.6-8.3-9.9c-1.2-0.5-2.7-0.9-4.4-0.9h-4.3c-0.9,0-1.6,0.5-2.1,1.3c-0.4,0.7-0.5,1.4-0.4,2.3
					c0.1,0.7,0.2,1.7,0.5,3c0.2,1.2,0.4,2.3,0.5,2.9c0.1,1.2,0.2,3,0.2,5.4c0,2.4,0.1,4.2,0.2,5.5c0.1,1,0.3,2.6,0.5,4.6
					c0.3,2,0.5,3.6,0.5,4.6c0.1,0.7,0.3,1.2,0.8,1.6c0.5,0.5,1,0.6,1.6,0.5c0.6-0.1,1.1-0.4,1.5-0.9c0.4-0.5,0.5-1.1,0.5-1.8
					l-0.5-3.9l-0.5-3.3c4.6,1.1,9,3.5,13,7.2c1.1,0.9,2.3,0.8,3.1-0.3c0.4-0.5,0.5-1.1,0.5-1.8C226,151.8,225.8,151.3,225.4,150.9z
					 M209,138.4c0-1.6-0.1-2.9-0.2-4c-0.1-0.6-0.2-1.4-0.4-2.4l-0.3-1.9h2.1c1.8,0.1,3.6,0.7,5.4,1.9c1.9,1.3,3,2.8,3.1,4.5
					c0,0.3-0.1,0.8-0.7,1.7c-0.5,0.7-1,1.2-1.6,1.6c-1.3,1-3.5,1.6-6.4,1.9c-0.2,0-0.4,0-0.8,0.1c-0.2,0-0.2,0-0.3,0L209,138.4z"/>
				<path class="st6" d="M210.4,125.3c1.7,0.1,3.1,0.4,4.4,0.9c5.1,2.4,8,5.8,8.3,9.9c0.2,2.1-0.5,4.1-2,5.9c-1,1.2-2.4,2.2-4,3
					c3.5,1.8,6.3,3.7,8.2,5.9l0,0c0.4,0.5,0.6,0.9,0.7,1.5c0.1,0.6-0.1,1.2-0.5,1.8c-0.4,0.5-1,0.9-1.6,0.9c-0.5,0-1-0.2-1.5-0.6
					c-4.1-3.7-8.4-6.1-13-7.2l0.5,3.3l0.5,3.9c0.1,0.7-0.1,1.2-0.5,1.8c-0.4,0.5-0.9,0.8-1.5,0.9c-0.1,0-0.2,0-0.2,0
					c-0.5,0-1-0.2-1.4-0.5c-0.5-0.4-0.7-0.9-0.8-1.6c-0.1-1-0.3-2.6-0.5-4.6c-0.3-2-0.5-3.6-0.5-4.6c-0.2-1.2-0.2-3-0.2-5.5
					c0-2.4-0.1-4.2-0.2-5.4c-0.1-0.6-0.2-1.6-0.5-2.9c-0.2-1.3-0.4-2.3-0.5-3c-0.1-0.9,0.1-1.6,0.4-2.3c0.5-0.9,1.2-1.3,2.1-1.3
					L210.4,125.3 M209,141.9c0.1,0,0.2,0,0.3,0c0.3,0,0.6,0,0.8-0.1c2.9-0.3,5.1-0.9,6.4-1.9c0.5-0.5,1.1-1,1.6-1.6
					c0.6-0.9,0.7-1.4,0.7-1.7c-0.2-1.7-1.2-3.2-3.1-4.5c-1.8-1.2-3.6-1.9-5.4-1.9h-2.1l0.3,1.9c0.2,0.9,0.3,1.8,0.4,2.4
					c0.1,1,0.2,2.4,0.2,4L209,141.9 M210.5,122.4L210.5,122.4h-4.4c-2,0-3.7,1.1-4.7,2.9c-0.6,1.2-0.9,2.5-0.7,3.9
					c0.1,0.8,0.2,1.8,0.5,3.2c0.3,1.5,0.4,2.3,0.4,2.7c0.1,0.7,0.2,2.2,0.2,5.1c0,2.5,0.1,4.4,0.2,5.8c0.1,1.1,0.3,2.7,0.6,4.8
					c0.3,2,0.5,3.5,0.5,4.4c0.2,1.4,0.7,2.6,1.6,3.5c0.9,0.9,2.1,1.4,3.4,1.4c0.2,0,0.3,0,0.5,0c1.5-0.2,2.7-0.9,3.6-2.1
					c0.8-1.1,1.1-2.3,0.9-3.7l0,0l0,0l-0.3-2.6c2.7,1.2,5.1,2.9,7.6,5.1c1,0.9,2.2,1.4,3.4,1.4c1.6,0,3-0.8,4-2.1
					c0.8-1.1,1.2-2.4,1-3.7c-0.1-1.1-0.5-2.2-1.3-3l0,0l-0.1-0.1c-1.3-1.5-3-2.9-5-4.1c0.3-0.2,0.5-0.5,0.8-0.9c2-2.3,3-5.1,2.7-8
					c-0.4-3.7-2.3-8.7-10-12.3C214.5,122.9,212.6,122.4,210.5,122.4L210.5,122.4L210.5,122.4z M212,138.7v-0.2
					c0-1.6-0.1-3.1-0.2-4.2c0-0.2-0.1-0.5-0.1-0.9c0.8,0.2,1.6,0.6,2.3,1.2c0.9,0.7,1.6,1.3,1.8,2c0,0.1-0.1,0.1-0.1,0.2
					c-0.3,0.4-0.6,0.8-0.9,1C214.4,138,213.6,138.3,212,138.7L212,138.7z"/>
			</g>
		</g>
	</g>
	<g>
		<path class="st7" d="M232.4,153.5c-0.1-0.1-0.2-0.2-0.3-0.2c-0.2,0.1-0.2,0.2-0.2,0.3c0,0.1,0,0.2,0,0.2c-0.4,0.2-0.7,0.5-1.1,0.2
			c-0.4-0.3-0.3-0.8-0.2-1.2c0-0.2,0.1-0.2,0.1-0.4c0.5-2.6-0.6-5.1-2.9-6.5l0,0c0-0.1-0.1-0.2-0.2-0.2c-0.1-0.1-0.1-0.1-0.2-0.2
			l0,0c-0.1-0.3-0.2-0.5-0.5-0.5l0,0c-0.2-0.2-0.3-0.4-0.6-0.5c0,0.9,0,1.6,0,2.3c-0.1,1.3-0.4,1.7-1.6,2c-0.2,0-0.3,0.1-0.4,0.2
			c-0.5,1.2-1.2,2.3-1.4,3.7c0,0.4-0.1,0.7-0.2,1.1c-0.2,0.8-0.9,0.9-1.4,0.3c-0.2-0.2-0.2-0.3-0.3-0.5l0,0c0-0.1,0-0.2,0-0.3
			c0-0.2,0.1-0.4,0-0.6c0-0.2,0.2-0.5-0.1-0.6c-0.2-0.1-0.3,0.2-0.5,0.4c-0.1,0.1-0.1,0.2-0.1,0.2c0,0,0,0,0.1,0.1c0,0,0,0-0.1-0.1
			c-1.6,2.3-1.7,4.2-0.3,6.5c0.1,0.2,0.2,0.2,0.2,0.4c0.2,0.2,0.3,0.4,0.2,0.7c-0.1,0.3-0.5,0-0.6,0.2c0.5,0.5,0.8,1,1.4,1.3
			c0.2,0.3,0.5,0.5,0.9,0.6c0.4,0.3,0.9,0.5,1.3,0.5c0.1,0.1,0.2,0.1,0.3,0.2c0.8,0.3,1.6,0.3,2.4,0.2c0.2-0.1,0.5-0.1,0.8-0.2l0,0
			c0.7-0.2,1.4-0.2,2-0.6c0.1,0,0.1-0.1,0.2-0.1l0,0c0.1-0.1,0.2-0.1,0.3-0.2c-0.1,0-0.1,0-0.2-0.1l0,0c0.1,0,0.1,0,0.2,0.1
			c0.4-0.2,0.8-0.4,1-0.8c-0.3-0.1-0.2-0.3-0.1-0.5c0.2-0.3,0.5-0.5,0.7-0.8C233,158.5,233.5,155.4,232.4,153.5z M229.5,159.6
			c0-0.1-0.1-0.1-0.1-0.2C229.5,159.4,229.5,159.5,229.5,159.6z M230,159.6L230,159.6c0.1,0.6-0.1,1.1-0.4,1.5
			C229.9,160.7,230.1,160.2,230,159.6z M222.1,159.1c-0.1,0.7-0.3,1.4,0.2,2l0,0C221.8,160.4,222.1,159.7,222.1,159.1z M222.5,161.2
			c0.4,0.3,0.6,0.6,0.9,1C223.2,161.9,222.9,161.5,222.5,161.2z M227.4,162.8c0.2-0.2,0.3-0.3,0.5-0.5
			C227.7,162.5,227.5,162.7,227.4,162.8z"/>
		<path class="st7" d="M230.8,161.4c0,0,0,0,0-0.2c-0.1,0.1-0.1,0.2-0.2,0.2C230.7,161.4,230.7,161.5,230.8,161.4
			C230.8,161.5,230.8,161.4,230.8,161.4z"/>
		<path class="st7" d="M221.9,148.6c-1.6,2.2-1.6,2.2-1.4,3C221.7,150.7,222.1,149.8,221.9,148.6z"/>
	</g>
	<g class="st3">
		<path class="st8" d="M227.2,163.1c-0.2,0.1-0.5,0.1-0.8,0.2c0-0.3,0.3-0.5,0.4-0.7c0.4-0.5,1-0.9,1.1-1.6c0.2-1.2-0.3-2.2-1.2-3
			c-0.5-0.5-1.1-0.5-1.7,0c-0.5,0.4-0.8,0.9-1.1,1.4c-0.6,0.9-0.5,1.5,0,2.3c0.2,0.2,0.3,0.5,0.5,0.7c0.1,0.2,0.4,0.5,0.2,0.7
			c-0.2,0.2-0.4,0-0.6,0.1c-0.1-0.1-0.2-0.1-0.3-0.2c0.1-0.1,0.5-0.1,0.2-0.3c-0.5-0.5-0.9-1.2-1.6-1.6c-0.5-0.7-0.2-1.5-0.2-2.3
			c0.5-0.2,0.3-0.6,0.4-0.9c0.1-0.3,0.1-0.6,0.4-0.7c0.7-0.2,1.1-0.8,1.3-1.5c0.2-0.7,0.5-1.3,0.9-2c0.4-0.8,1.6-1.2,2.3-1
			c0.9,0.3,0.7,1.1,0.6,1.8c-0.1,0.6,0.1,1.1,0.5,1.6c0.5,0.9,1.2,1.7,1,2.9c-0.1,0.5,0.2,0.5,0.5,0.4c0.1,0.8-0.2,1.4-0.8,1.9
			C228.5,161.9,227.8,162.4,227.2,163.1z"/>
		<path class="st9" d="M222.1,158.8c0,0.8-0.4,1.6,0.2,2.3c-0.2,0.5,0,0.9,0,1.3c-0.3-0.2-0.6-0.3-0.9-0.6c0.2-1,0.2-2-0.4-3
			c-0.2-0.3-0.2-0.6-0.2-1c0.2-1.7-0.8-3.4-0.2-5.1c0,0-0.1-0.1-0.2-0.2c0-0.1,0.1-0.2,0.1-0.2c0.2-0.2,0.2-0.5,0.5-0.4
			c0.3,0.1,0.1,0.4,0.1,0.6c0,0.2,0,0.4,0,0.6c-0.2,0.2-0.2,0.2,0,0.3l0,0c-0.1,0.6,0.2,1,0.8,1.2c1.2,0.4,1.7,0,1.9-1.3
			c0.2-1.4,0.4-2.7,1.1-3.9c0.2-0.4,0.4-0.6,0.9-0.5c0.4,0.1,0.6-0.2,0.8-0.5c0.4-0.9,0.5-1.8,0.3-2.7c-0.1-0.3-0.2-0.7,0.2-0.9l0,0
			c0.1,0.3,0.2,0.5,0.5,0.5l0,0c0.1,0.1,0.1,0.2,0.2,0.2l0,0c0.1,0.1,0.1,0.2,0.2,0.2l0,0c0,0.5,0.4,0.9,0.7,1.2
			c0.9,0.9,1.5,1.9,1.5,3.4c0,0.9-0.2,1.9-0.2,2.8c-0.1,0.7,0.4,1,0.9,1.2c0.5,0.1,1.1,0.2,1.2-0.5c0-0.1,0-0.2,0-0.2
			c0.3,0.1,0.3,0.4,0.2,0.5c-0.5,0.7-0.9,1.4-1.6,1.9c-0.4,0-0.8,0.3-1.2,0.2c-0.6-0.2-0.9-0.9-0.7-1.8c0.2-0.8,0.2-1.5,0.3-2.3
			c0.1-1.5-0.5-2.7-1.4-3.8c-0.2-0.2-0.5-0.4-0.5,0.1c-0.1,1.1-0.8,1.6-1.3,2.3c-0.9,1-1.6,2-1.7,3.5c-0.2,1.2-0.4,2.3-1.8,2.7
			c-0.3,0.1-0.4,0.2-0.3,0.5C222,157.8,222.1,158.3,222.1,158.8z"/>
		<path class="st10" d="M224,163.1c0.2,0,0.5,0.2,0.6-0.1c0.2-0.2-0.1-0.5-0.2-0.7c-0.2-0.2-0.3-0.5-0.5-0.7c-0.6-0.9-0.6-1.5,0-2.3
			c0.3-0.5,0.6-1,1.1-1.4c0.5-0.5,1.2-0.5,1.7,0c0.9,0.8,1.4,1.7,1.2,3c-0.2,0.7-0.8,1.1-1.1,1.6c-0.2,0.2-0.4,0.4-0.4,0.7
			C225.6,163.4,224.8,163.4,224,163.1z"/>
		<path class="st11" d="M230.6,156c0.8-0.4,1.2-1.1,1.6-1.9c0.1-0.2,0.1-0.5-0.2-0.5c0-0.2,0-0.3,0.2-0.3c0.2-0.1,0.2,0.1,0.3,0.2
			c1.1,2,0.6,5-1.1,6.7c-0.2,0.2-0.5,0.5-0.7,0.8c-0.2,0.2-0.2,0.5,0.2,0.5h0.1c0,0,0,0,0-0.2c-0.3,0.6-0.7,0.9-1.2,1
			c-0.1,0-0.1,0-0.2-0.1c0.5-0.5,0.5-1.3,0.9-2c0.6-0.9,0.5-0.9-0.2-1.5c-0.1-0.3,0-0.7,0.2-1C230.5,157.2,230.6,156.7,230.6,156z"
			/>
		<path class="st11" d="M220.5,152.6c0.1,0.1,0.2,0.2,0.2,0.2c-0.5,1.7,0.5,3.4,0.2,5.1c0,0.3,0.1,0.7,0.2,1c0.5,0.9,0.5,2,0.4,3
			c-0.6-0.2-0.9-0.8-1.4-1.3c0.2-0.2,0.5,0.1,0.6-0.2c0.1-0.2-0.2-0.5-0.2-0.7c-0.1-0.2-0.2-0.2-0.2-0.4
			C218.8,156.8,218.9,155,220.5,152.6z"/>
		<path class="st11" d="M227.1,145.1c-0.5,0.2-0.3,0.5-0.2,0.9c0.2,0.9,0.1,1.8-0.3,2.7c-0.2,0.4-0.4,0.6-0.8,0.5
			c-0.5-0.1-0.6,0.2-0.9,0.5c-0.6,1.2-0.9,2.5-1.1,3.9c-0.1,1.3-0.7,1.7-1.9,1.3c-0.5-0.2-0.9-0.5-0.8-1.2c0.1,0.2,0.2,0.3,0.3,0.5
			c0.5,0.6,1.2,0.5,1.4-0.3c0.1-0.3,0.2-0.7,0.2-1.1c0.2-1.4,0.9-2.5,1.4-3.7c0.1-0.2,0.2-0.2,0.4-0.2c1.2-0.2,1.5-0.7,1.6-2
			c0-0.7,0-1.5,0-2.3C226.7,144.7,226.9,144.8,227.1,145.1z"/>
		<path class="st11" d="M232,153.9c-0.2,0.8-0.8,0.7-1.2,0.5c-0.5-0.2-1-0.5-0.9-1.2c0.1-0.9,0.2-1.9,0.2-2.8c0-1.4-0.6-2.4-1.5-3.4
			c-0.3-0.3-0.8-0.6-0.7-1.2c2.3,1.3,3.4,3.9,2.9,6.5c0,0.2-0.1,0.2-0.1,0.4c-0.1,0.5-0.2,0.9,0.2,1.2
			C231.3,154.3,231.6,154,232,153.9z"/>
		<path class="st9" d="M220.4,151.5c-0.1-0.9-0.1-0.9,1.4-3C222.1,149.8,221.7,150.7,220.4,151.5z"/>
		<path class="st9" d="M230.2,158.8c0.8,0.5,0.9,0.6,0.2,1.5c-0.5,0.6-0.3,1.4-0.9,2c-0.1,0.1-0.1,0.2-0.2,0.2s-0.1,0.1-0.2,0.1
			c0-0.3,0-0.7,0-1c0.6-0.5,0.9-1.1,0.8-1.9C230,159.3,230.1,159.1,230.2,158.8z"/>
		<path class="st12" d="M222.4,162.4c0-0.5-0.2-0.9,0-1.3c0.6,0.4,1,1.1,1.6,1.6c0.2,0.2-0.2,0.2-0.2,0.3
			C223.2,162.9,222.8,162.7,222.4,162.4z"/>
		<path class="st12" d="M229.2,161.4c0,0.3,0,0.7,0,1c-0.6,0.3-1.3,0.5-2,0.6C227.8,162.4,228.5,161.9,229.2,161.4z"/>
		<path class="st11" d="M227.6,145.6c-0.3,0-0.5-0.2-0.5-0.5C227.3,145.1,227.4,145.4,227.6,145.6z"/>
		<path class="st11" d="M221.1,153.6c-0.2-0.1-0.2-0.2,0-0.3C221.1,153.4,221.1,153.6,221.1,153.6z"/>
		<path class="st12" d="M229.3,162.4c0.1-0.1,0.1-0.2,0.2-0.2s0.1,0,0.2,0.1C229.5,162.3,229.5,162.4,229.3,162.4z"/>
		<path class="st11" d="M227.7,145.8c-0.1-0.1-0.1-0.2-0.2-0.2C227.6,145.7,227.7,145.8,227.7,145.8z"/>
		<path class="st11" d="M227.8,146c-0.1-0.1-0.1-0.2-0.2-0.2C227.8,145.8,227.8,145.8,227.8,146z"/>
		<path class="st12" d="M230.2,158.8c-0.1,0.2-0.1,0.5-0.2,0.8c-0.4,0.2-0.6,0.1-0.5-0.4c0.2-1.2-0.5-2-1-2.9
			c-0.3-0.5-0.5-1-0.5-1.6c0.1-0.7,0.2-1.5-0.6-1.8c-0.8-0.3-1.9,0.2-2.3,1c-0.3,0.6-0.6,1.2-0.9,2c-0.2,0.7-0.5,1.2-1.3,1.5
			c-0.3,0.1-0.4,0.4-0.4,0.7c-0.1,0.3,0.1,0.8-0.4,0.9c-0.1-0.5-0.2-0.9-0.3-1.3c-0.1-0.2,0-0.5,0.3-0.5c1.4-0.3,1.7-1.5,1.8-2.7
			c0.2-1.5,0.9-2.5,1.7-3.5c0.6-0.7,1.3-1.3,1.3-2.3c0-0.5,0.3-0.3,0.5-0.1c0.9,1.1,1.5,2.3,1.4,3.8c0,0.8-0.1,1.5-0.3,2.3
			c-0.2,0.9,0.2,1.6,0.7,1.8c0.4,0.2,0.8-0.2,1.2-0.2c0.1,0.6-0.1,1.2-0.3,1.8C230.1,158.2,230.1,158.5,230.2,158.8z"/>
	</g>
</g>
<text transform="matrix(1 0 0 1 46.8242 228.6095)" class="st4 st13 st14">AUCUNE PHOTO SELECTIONNEE</text>
</svg>
